<svg width="90" height="44" viewBox="0 0 90 44" fill="none" xmlns="http://www.w3.org/2000/svg">
<path d="M23.1797 0H27.2355V25.3487H23.1797V0ZM41.4307 17.2624C41.4307 21.1418 38.1689 21.4511 37.1985 21.4511C34.7742 21.4511 34.3331 19.1818 34.3331 17.813V8.11157H30.2773V17.7927C30.2773 20.1958 31.0317 22.1791 32.3539 23.5013C33.5219 24.6703 35.272 25.3091 37.1681 25.3091C38.5126 25.3091 40.4168 24.8904 41.4307 23.9646V25.3487H45.4865V8.11157H41.4307V17.2624ZM53.5981 2.02789H49.5423V8.11157H46.5005V12.1674H49.5423V25.3487H53.5981V12.1674H56.6399V8.11157H53.5981V2.02789ZM69.4126 20.1948C68.5295 20.9887 67.3634 21.4287 66.0838 21.4287C63.263 21.4287 61.1915 19.3573 61.1915 16.5131C61.1915 13.669 63.1971 11.6847 66.0838 11.6847C67.3411 11.6847 68.5295 12.1035 69.4349 12.8974L70.0504 13.4267L72.785 10.6931L72.1006 10.0756C70.4915 8.6226 68.3551 7.80739 66.0828 7.80739C61.0131 7.80739 57.3314 11.4657 57.3314 16.4918C57.3314 21.4967 61.1013 25.2858 66.0828 25.2858C68.3977 25.2858 70.5563 24.4706 72.1452 22.9943L72.8063 22.3768L70.0291 19.6452L69.4126 20.1948ZM87.2611 9.61424C86.093 8.44618 84.7242 7.80739 82.8281 7.80739C81.4837 7.80739 79.9607 8.22615 78.9468 9.15087V0H74.891V25.3487H78.9468V15.8531C78.9468 11.9737 81.7027 11.6655 82.673 11.6655C85.0974 11.6655 85.0304 13.9357 85.0304 15.3025V25.3487H89.0862V15.3238C89.0862 12.9207 88.5843 10.9374 87.2611 9.61424Z" fill="white"/>
<path d="M65.948 13.626C66.7257 13.626 67.4715 13.9349 68.0214 14.4848C68.5713 15.0348 68.8803 15.7806 68.8803 16.5583C68.8803 17.336 68.5713 18.0819 68.0214 18.6318C67.4715 19.1817 66.7257 19.4906 65.948 19.4906C65.1703 19.4906 64.4244 19.1817 63.8745 18.6318C63.3246 18.0819 63.0156 17.336 63.0156 16.5583C63.0156 15.7806 63.3246 15.0348 63.8745 14.4848C64.4244 13.9349 65.1703 13.626 65.948 13.626Z" fill="#FF3D2E"/>
<path d="M17.5017 18.9823C15.9595 20.5691 13.8647 21.4289 11.6604 21.4289C7.14224 21.4289 3.85705 17.8801 3.85705 13.0091C3.85705 8.11583 7.14224 4.56701 11.6604 4.56701C13.8434 4.56701 15.9149 5.42583 17.4804 6.99136L18.0969 7.60885L20.8082 4.89756L20.213 4.28007C17.9651 1.96523 14.9233 0.709961 11.6604 0.709961C5.00383 0.709961 0 5.99972 0 13.0304C0 20.0398 5.02613 25.3083 11.6604 25.3083C14.9456 25.3083 17.9874 24.0307 20.2353 21.7159L20.8305 21.0984L18.1415 18.3435L17.5017 18.9823Z" fill="white"/>
<path d="M28.3532 32.1106C28.4535 31.8019 28.8902 31.8019 28.9905 32.1106L29.9507 35.0658C29.9956 35.2039 30.1243 35.2974 30.2694 35.2974H33.3767C33.7013 35.2974 33.8362 35.7127 33.5736 35.9035L31.0598 37.7299C30.9424 37.8153 30.8932 37.9665 30.9381 38.1046L31.8983 41.0598C31.9986 41.3685 31.6453 41.6252 31.3827 41.4344L28.8688 39.608C28.7514 39.5226 28.5924 39.5226 28.4749 39.608L25.9611 41.4344C25.6985 41.6252 25.3452 41.3685 25.4455 41.0598L26.4057 38.1046C26.4505 37.9665 26.4014 37.8153 26.2839 37.7299L23.7701 35.9035C23.5075 35.7127 23.6425 35.2974 23.9671 35.2974H27.0743C27.2195 35.2974 27.3481 35.2039 27.393 35.0658L28.3532 32.1106Z" fill="#F6A400"/>
<path d="M41.7516 32.1106C41.8519 31.8019 42.2887 31.8019 42.389 32.1106L43.3492 35.0658C43.394 35.2039 43.5227 35.2974 43.6679 35.2974H46.7751C47.0997 35.2974 47.2347 35.7127 46.9721 35.9035L44.4582 37.7299C44.3408 37.8153 44.2917 37.9665 44.3365 38.1046L45.2967 41.0598C45.397 41.3685 45.0437 41.6252 44.7811 41.4344L42.2673 39.608C42.1498 39.5226 41.9908 39.5226 41.8734 39.608L39.3595 41.4344C39.0969 41.6252 38.7436 41.3685 38.8439 41.0598L39.8041 38.1046C39.849 37.9665 39.7998 37.8153 39.6824 37.7299L37.1685 35.9035C36.9059 35.7127 37.0409 35.2974 37.3655 35.2974H40.4728C40.6179 35.2974 40.7466 35.2039 40.7914 35.0658L41.7516 32.1106Z" fill="#F6A400"/>
<path d="M55.1579 32.1106C55.2582 31.8019 55.6949 31.8019 55.7952 32.1106L56.7554 35.0658C56.8003 35.2039 56.9289 35.2974 57.0741 35.2974H60.1814C60.506 35.2974 60.6409 35.7127 60.3783 35.9035L57.8645 37.7299C57.7471 37.8153 57.6979 37.9665 57.7428 38.1046L58.703 41.0598C58.8033 41.3685 58.45 41.6252 58.1874 41.4344L55.6735 39.608C55.5561 39.5226 55.3971 39.5226 55.2796 39.608L52.7658 41.4344C52.5032 41.6252 52.1498 41.3685 52.2502 41.0598L53.2104 38.1046C53.2552 37.9665 53.2061 37.8153 53.0886 37.7299L50.5748 35.9035C50.3122 35.7127 50.4472 35.2974 50.7717 35.2974H53.879C54.0242 35.2974 54.1528 35.2039 54.1977 35.0658L55.1579 32.1106Z" fill="#F6A400"/>
<path d="M68.5602 32.1106C68.6605 31.8019 69.0973 31.8019 69.1976 32.1106L70.1578 35.0658C70.2026 35.2039 70.3313 35.2974 70.4764 35.2974H73.5837C73.9083 35.2974 74.0433 35.7127 73.7807 35.9035L71.2668 37.7299C71.1494 37.8153 71.1003 37.9665 71.1451 38.1046L72.1053 41.0598C72.2056 41.3685 71.8523 41.6252 71.5897 41.4344L69.0759 39.608C68.9584 39.5226 68.7994 39.5226 68.682 39.608L66.1681 41.4344C65.9055 41.6252 65.5522 41.3685 65.6525 41.0598L66.6127 38.1046C66.6576 37.9665 66.6084 37.8153 66.491 37.7299L63.9771 35.9035C63.7145 35.7127 63.8495 35.2974 64.1741 35.2974H67.2814C67.4265 35.2974 67.5552 35.2039 67.6 35.0658L68.5602 32.1106Z" fill="#F6A400"/>
<path d="M83.1797 35.1895C83.2781 35.4923 83.5605 35.6973 83.8789 35.6973H86.7871L84.4336 37.4062C84.2084 37.57 84.098 37.8445 84.1396 38.1133L84.167 38.2285L85.0645 40.9912L82.7129 39.2842L82.6123 39.2227C82.4044 39.1177 82.1581 39.1177 81.9502 39.2227L81.8496 39.2842L79.4971 40.9912L80.3955 38.2285C80.4816 37.9636 80.4095 37.6764 80.2178 37.4834L80.1289 37.4062L77.7754 35.6973H80.6836C80.9624 35.6973 81.2137 35.5402 81.3379 35.2979L81.3828 35.1895L82.2812 32.4229L83.1797 35.1895Z" stroke="#F6A400" stroke-width="0.8"/>
<mask id="mask0_4490_1540" style="mask-type:alpha" maskUnits="userSpaceOnUse" x="77" y="31" width="11" height="11">
<path d="M81.9626 32.1106C82.0629 31.8019 82.4996 31.8019 82.5999 32.1106L83.5601 35.0658C83.605 35.2039 83.7336 35.2974 83.8788 35.2974H86.9861C87.3107 35.2974 87.4456 35.7127 87.183 35.9035L84.6692 37.7299C84.5517 37.8153 84.5026 37.9665 84.5475 38.1046L85.5077 41.0598C85.608 41.3685 85.2546 41.6252 84.992 41.4344L82.4782 39.608C82.3608 39.5226 82.2017 39.5226 82.0843 39.608L79.5705 41.4344C79.3079 41.6252 78.9545 41.3685 79.0548 41.0598L80.015 38.1046C80.0599 37.9665 80.0108 37.8153 79.8933 37.7299L77.3795 35.9035C77.1169 35.7127 77.2518 35.2974 77.5764 35.2974H80.6837C80.8289 35.2974 80.9575 35.2039 81.0024 35.0658L81.9626 32.1106Z" fill="#F6A400"/>
</mask>
<g mask="url(#mask0_4490_1540)">
<path d="M77.5 31.1299H82.5V42.1299H77.5V31.1299Z" fill="#F6A400"/>
</g>
<path d="M4.692 41.1299V39.4139H0.48V38.4779L4.5 32.7299H5.88V38.3699H7.08V39.4139H5.88V41.1299H4.692ZM1.788 38.3699H4.764V34.0499L1.788 38.3699ZM8.74913 41.1899C8.51713 41.1899 8.32513 41.1179 8.17313 40.9739C8.02913 40.8219 7.95713 40.6419 7.95713 40.4339C7.95713 40.2179 8.02913 40.0379 8.17313 39.8939C8.32513 39.7419 8.51713 39.6659 8.74913 39.6659C8.98113 39.6659 9.16913 39.7419 9.31313 39.8939C9.45713 40.0379 9.52913 40.2179 9.52913 40.4339C9.52913 40.6419 9.45713 40.8219 9.31313 40.9739C9.16913 41.1179 8.98113 41.1899 8.74913 41.1899ZM13.7993 41.2739C13.2073 41.2739 12.6993 41.1699 12.2753 40.9619C11.8513 40.7459 11.5153 40.4579 11.2673 40.0979C11.0193 39.7299 10.8673 39.3179 10.8113 38.8619H11.9873C12.0673 39.2699 12.2673 39.6059 12.5873 39.8699C12.9073 40.1259 13.3113 40.2539 13.7993 40.2539C14.1673 40.2539 14.4833 40.1659 14.7473 39.9899C15.0113 39.8139 15.2153 39.5779 15.3593 39.2819C15.5033 38.9859 15.5753 38.6579 15.5753 38.2979C15.5753 37.9139 15.4993 37.5819 15.3473 37.3019C15.2033 37.0139 14.9993 36.7899 14.7353 36.6299C14.4793 36.4699 14.1793 36.3899 13.8353 36.3899C13.4193 36.3899 13.0593 36.4859 12.7553 36.6779C12.4593 36.8619 12.2433 37.0979 12.1073 37.3859H10.9433L11.6393 32.7299H16.1633V33.7739H12.5633L12.1193 36.1259C12.3113 35.9099 12.5673 35.7339 12.8873 35.5979C13.2153 35.4619 13.5873 35.3939 14.0033 35.3939C14.4273 35.3939 14.8073 35.4699 15.1433 35.6219C15.4793 35.7659 15.7633 35.9699 15.9953 36.2339C16.2353 36.4979 16.4153 36.8059 16.5353 37.1579C16.6633 37.5099 16.7273 37.8819 16.7273 38.2739C16.7273 38.6979 16.6593 39.0899 16.5233 39.4499C16.3873 39.8099 16.1913 40.1299 15.9353 40.4099C15.6873 40.6819 15.3793 40.8939 15.0113 41.0459C14.6513 41.1979 14.2473 41.2739 13.7993 41.2739Z" fill="white"/>
</svg>
