<?xml version="1.0" encoding="UTF-8"?>
<svg version="1.1" xmlns="http://www.w3.org/2000/svg" width="1040" height="1040">
<path d="M0 0 C1.50869749 0.00028251 3.01739512 0.0001229 4.52609253 -0.0004425 C8.59775598 -0.000728 12.66938963 0.00512862 16.74104619 0.01213145 C21.00513255 0.01840629 25.26921968 0.01897205 29.53330994 0.02015686 C37.59723251 0.02325804 45.66114144 0.031455 53.72505802 0.04150635 C62.91009614 0.05270526 72.09513493 0.05818744 81.28017819 0.06320179 C100.16457638 0.07363868 119.0489619 0.09121452 137.93334961 0.11352539 C137.91449707 1.33168945 137.89564453 2.54985352 137.8762207 3.80493164 C137.86096924 5.42862548 137.84618275 7.05232374 137.83178711 8.67602539 C137.81136353 9.87582031 137.81136353 9.87582031 137.79052734 11.09985352 C137.70550109 23.91919688 142.49868179 35.59460048 151.30834961 44.92602539 C161.73166278 54.59995003 174.81968736 58.48493755 188.93334961 58.11352539 C205.37769445 56.59030229 221.49419285 50.29069226 232.93334961 38.11352539 C233.59334961 38.11352539 234.25334961 38.11352539 234.93334961 38.11352539 C235.20663086 37.51797852 235.47991211 36.92243164 235.76147461 36.30883789 C236.89409977 34.18705342 238.04997833 32.73605703 239.68334961 30.98852539 C247.60996226 21.83059427 251.22563152 11.44704663 254.93334961 0.11352539 C259.22334961 0.11352539 263.51334961 0.11352539 267.93334961 0.11352539 C267.29087372 7.35906077 266.27894899 14.44880665 265.0078125 21.60864258 C264.81085533 22.73511483 264.61389816 23.86158709 264.4109726 25.02219486 C263.86293931 28.15204026 263.31160697 31.28128346 262.75885129 34.41029763 C262.1503129 37.85979479 261.54603555 41.31003896 260.94114685 44.76017761 C259.72823848 51.67416374 258.51122615 58.58742189 257.29292864 65.50046021 C256.27786813 71.26088026 255.26449158 77.02159444 254.25219727 82.78250122 C254.10576566 83.61582126 253.95933405 84.44914129 253.80846512 85.30771345 C253.508697 87.01366294 253.20892955 88.71961254 252.90916276 90.42556226 C248.98516033 112.75456695 245.05067209 135.08172227 241.11515045 157.40869904 C239.89020801 164.35810768 238.66552839 171.30756264 237.44085693 178.25701904 C231.33449034 212.90714108 225.22459361 247.55663989 219.11176062 282.20562172 C218.66222011 284.75373 218.21268751 287.30183967 217.76316309 289.84995079 C216.23291364 298.52410376 214.70249359 307.19822661 213.171875 315.87231445 C212.95781663 317.08541345 212.74375826 318.29851245 212.52321327 319.54837203 C210.18450314 332.80144961 207.844107 346.05422665 205.4997406 359.30630493 C205.29190478 360.48121982 205.08406897 361.65613471 204.8699351 362.86665308 C203.10306281 372.85490762 203.10306281 372.85490762 202.35809815 377.06537652 C199.76229791 391.73819479 197.17635254 406.41269839 194.60304213 421.08947819 C192.85545641 431.05618864 191.10273752 441.02198734 189.34642076 450.98716289 C188.31216928 456.8571985 187.28071691 462.72769326 186.25639343 468.59947014 C185.3079531 474.03622682 184.35198552 479.47160785 183.39047432 484.90606761 C183.04315017 486.87687374 182.69851855 488.84815689 182.35699272 490.81997609 C179.53556946 507.09574098 176.5277726 523.66260662 169.68334961 538.80102539 C169.10701782 540.10535522 169.10701782 540.10535522 168.51904297 541.43603516 C160.82504543 558.51761837 151.08094704 573.99442486 138.23413086 587.66040039 C136.22527572 589.80226971 134.32204868 591.99154852 132.43334961 594.23852539 C107.11926229 623.11880053 66.05735242 643.59971659 27.93334961 647.11352539 C17.80759059 647.61752939 7.6576529 647.50244136 -2.47773314 647.46172225 C-6.57561353 647.44862477 -10.6734821 647.45316092 -14.77137756 647.45542908 C-21.85109514 647.45699325 -28.93072903 647.44767433 -36.01042557 647.43071556 C-46.24614733 647.40621294 -56.48182911 647.39850884 -66.71757703 647.39475159 C-83.32907487 647.38820466 -99.94052823 647.3682915 -116.55200195 647.33984375 C-132.67732523 647.31225746 -148.80263637 647.29104632 -164.92797852 647.27832031 C-165.92389301 647.27753214 -166.91980751 647.27674397 -167.94590123 647.27593192 C-172.9426936 647.27201647 -177.93948606 647.26822543 -182.93627858 647.26449621 C-224.31310011 647.23345512 -265.68987269 647.18066757 -307.06665039 647.11352539 C-306.76963011 645.23132323 -306.46781694 643.34987712 -306.1640625 641.46875 C-305.99651962 640.42093857 -305.82897675 639.37312714 -305.65635681 638.29356384 C-304.72685272 633.2811396 -303.24655787 628.50398673 -301.62915039 623.67602539 C-301.11288086 622.13446777 -301.11288086 622.13446777 -300.58618164 620.56176758 C-285.12665966 576.26533796 -250.25640187 540.52604993 -208.67260742 519.81103516 C-189.03803788 510.39436298 -166.82067946 503.90372319 -144.92944336 503.99327087 C-143.76150317 503.99198924 -143.76150317 503.99198924 -142.56996822 503.99068171 C-139.98290074 503.98904565 -137.39589932 503.99451733 -134.80883789 504 C-132.94561261 504.0002823 -131.08238721 504.0001233 -129.21916199 503.9995575 C-124.17639832 503.9992712 -119.13365855 504.00514078 -114.09090042 504.01213145 C-108.81515881 504.01839297 -103.53941663 504.018971 -98.26367188 504.02015686 C-88.28017185 504.02326193 -78.2966828 504.0314642 -68.3131876 504.04150635 C-56.94441697 504.05269309 -45.5756458 504.05818439 -34.20687103 504.06320179 C-10.8267914 504.0736475 12.55327849 504.09123098 35.93334961 504.11352539 C35.98764529 503.49940263 36.04194097 502.88527987 36.09788197 502.25254732 C36.64602508 496.38655695 37.43981712 490.6238879 38.47554016 484.82579041 C38.62970892 483.94550739 38.78387767 483.06522438 38.94271821 482.15826613 C39.45604265 479.23248906 39.9745963 476.30766441 40.49316406 473.3828125 C40.86511189 471.26920009 41.23673585 469.15553067 41.60806274 467.04180908 C42.62045365 461.28440821 43.6374228 455.52782437 44.65520501 449.77137446 C45.74152414 443.62274886 46.82365709 437.47338645 47.90629578 431.32411194 C49.74420163 420.88833705 51.58474711 410.45303106 53.42724609 400.01806641 C55.94768113 385.74357071 58.46370995 371.46830103 60.9786036 357.19282794 C66.62124252 325.16481432 72.27449286 293.13867728 77.93334961 261.11352539 C78.05074017 260.44917657 78.16813074 259.78482776 78.28907859 259.10034716 C81.71020554 239.73943728 85.13335759 220.37888623 88.55833411 201.01865697 C89.22294903 197.26147904 89.88738655 193.50426978 90.55178261 189.74705315 C91.58403429 183.90985619 92.61687159 178.07276317 93.65018868 172.23575473 C94.02818786 170.10004681 94.40600188 167.96430611 94.78361869 165.82853055 C95.29790319 162.92002263 95.81288206 160.01163852 96.32804871 157.10328674 C96.55215147 155.83454874 96.55215147 155.83454874 96.78078157 154.54017967 C96.91904302 153.76047988 97.05730447 152.98078009 97.19975567 152.17745304 C97.31815262 151.50843466 97.43654958 150.83941628 97.55853432 150.15012461 C97.9911031 147.79971557 98.46465509 145.456998 98.93334961 143.11352539 C41.51334961 143.11352539 -15.90665039 143.11352539 -75.06665039 143.11352539 C-75.39665039 147.07352539 -75.72665039 151.03352539 -76.06665039 155.11352539 C-76.57973286 158.52289535 -77.12448943 161.89901736 -77.74072266 165.28833008 C-77.90667938 166.22642517 -78.07263611 167.16452026 -78.24362183 168.13104248 C-78.7849249 171.18344203 -79.33390609 174.23440383 -79.88305664 177.28540039 C-80.2632503 179.42050808 -80.64295741 181.55570245 -81.02220154 183.690979 C-82.0152494 189.27467615 -83.0148465 194.85718094 -84.01586914 200.43945312 C-85.03875138 206.15040987 -86.0553565 211.86248352 -87.07250977 217.57446289 C-89.06445726 228.7552447 -91.06333393 239.93477543 -93.06665039 251.11352539 C-91.78790039 251.23977295 -90.50915039 251.36602051 -89.19165039 251.49609375 C-87.48329741 251.66915836 -85.77496516 251.84242774 -84.06665039 252.01586914 C-83.2274707 252.09816772 -82.38829102 252.18046631 -81.52368164 252.26525879 C-59.90727657 254.48031192 -41.33209666 262.72401254 -25.06665039 277.11352539 C-24.37442383 277.70649414 -23.68219727 278.29946289 -22.96899414 278.91040039 C-6.03859782 294.4909929 3.22611741 319.16424447 4.30444336 341.69946289 C4.34445586 343.62886249 4.36590179 345.55871728 4.37084961 347.48852539 C4.3739917 348.53419678 4.37713379 349.57986816 4.38037109 350.65722656 C4.16410743 365.5033467 1.58965069 380.74490993 -2.06665039 395.11352539 C-12.28227968 395.18365884 -22.49784981 395.23665322 -32.71367264 395.26896191 C-37.45951208 395.28448416 -42.20518442 395.30547001 -46.95092773 395.33984375 C-51.54808902 395.37292523 -56.14509166 395.3904788 -60.74236298 395.39815712 C-62.47866049 395.40361462 -64.21495134 395.41426514 -65.9511795 395.43071556 C-107.25637407 395.8057847 -148.45284383 382.53446316 -178.96118164 354.06665039 C-180.679225 352.47291815 -182.41530375 350.99893613 -184.25415039 349.55102539 C-213.28250711 324.39311623 -227.80138536 283.12371507 -230.88574219 245.85522461 C-234.82720951 186.12151614 -211.67432784 129.02167828 -172.92602539 84.34790039 C-165.40678429 75.79515911 -157.85994148 67.37896184 -149.06665039 60.11352539 C-148.17333008 59.32075195 -147.28000977 58.52797852 -146.35961914 57.71118164 C-106.64541638 22.65640216 -53.18620574 -0.14016299 0 0 Z " fill="#1DFCC7" transform="translate(350.066650390625,216.886474609375)"/>
<path d="M0 0 C117.15 0 234.3 0 355 0 C354.25095548 6.74140066 353.36959344 12.11663238 351.4375 18.4375 C351.17356445 19.30221924 350.90962891 20.16693848 350.63769531 21.05786133 C343.03436286 45.14899824 330.16134792 66.21322278 313.0859375 84.7265625 C311.1477745 86.8389424 309.28976729 88.99998072 307.4375 91.1875 C287.22804478 114.25113796 255.70523809 130.86355415 226.4375 138.75 C225.34151489 139.04813599 225.34151489 139.04813599 224.22338867 139.35229492 C209.66008671 143.07652856 195.40726602 143.27989839 180.48095703 143.22705078 C178.2326152 143.22648571 175.98427301 143.22680511 173.7359314 143.22793579 C167.67080533 143.22850654 161.60575935 143.21679737 155.5406518 143.20278788 C149.18790251 143.19023403 142.83515113 143.18910636 136.48239136 143.18673706 C125.83215803 143.18123923 115.1819561 143.16877073 104.53173828 143.15087891 C93.56884912 143.13248112 82.60596791 143.11834377 71.64306641 143.10986328 C70.62703111 143.10907511 70.62703111 143.10907511 69.59046985 143.10827102 C66.19189054 143.10566068 62.79331117 143.10313332 59.39473176 143.10064721 C31.26313425 143.07996142 3.13156895 143.0446269 -25 143 C-23.7551106 133.96710852 -22.35918147 124.9778176 -20.76928711 115.99951172 C-20.5560228 114.7846962 -20.34275848 113.56988068 -20.12303162 112.31825256 C-19.54625007 109.03556257 -18.96749314 105.75323377 -18.38770366 102.47107458 C-17.77813054 99.01793048 -17.17092156 95.56437055 -16.56336975 92.11087036 C-15.54535035 86.32624243 -14.5255614 80.54192869 -13.50463867 74.7578125 C-12.32541653 68.07673698 -11.14882385 61.39520248 -9.97365373 54.71341312 C-8.83879559 48.26107601 -7.70230909 41.8090268 -6.56500435 35.35712051 C-6.08247802 32.61966618 -5.60048253 29.88211917 -5.11890984 27.14449692 C-4.44806882 23.33154682 -3.77482577 19.51902303 -3.10131836 15.70654297 C-2.90233948 14.57407639 -2.7033606 13.4416098 -2.49835205 12.27482605 C-2.31475632 11.23779037 -2.13116058 10.2007547 -1.94200134 9.1322937 C-1.78328521 8.23237135 -1.62456907 7.332449 -1.46104336 6.40525627 C-1.04878031 4.25448617 -0.5311349 2.12453961 0 0 Z " fill="#FFFFFF" transform="translate(641,217)"/>
<path d="M0 0 C98.01 0 196.02 0 297 0 C292.34196159 20.96117285 292.34196159 20.96117285 289.75 27.625 C289.30394409 28.79736206 289.30394409 28.79736206 288.84887695 29.9934082 C281.31604046 49.32409681 270.80663971 66.55022079 257 82 C255.79125097 83.416312 254.58285834 84.83292833 253.375 86.25 C225.88929621 117.22800498 186.19663439 138.32301105 145 143 C139.30387457 143.2648088 133.61976099 143.25428806 127.91870117 143.22705078 C126.24192817 143.22648533 124.56515467 143.22680583 122.88838196 143.22793579 C118.37685458 143.2285051 113.8654355 143.21681981 109.3539331 143.20278788 C104.62408876 143.1902095 99.89424142 143.18910445 95.16438293 143.18673706 C86.22580202 143.18054305 77.28727054 143.16416061 68.34871131 143.14403808 C58.1648137 143.12161407 47.98091362 143.11066936 37.79699743 143.10064721 C16.86463745 143.07979235 -4.06767815 143.04465716 -25 143 C-24.36278739 135.20507699 -23.15355236 127.56886245 -21.79101562 119.87109375 C-21.56814377 118.59512833 -21.34527191 117.3191629 -21.11564636 116.00453186 C-20.50954297 112.53549123 -19.89888082 109.06726805 -19.2871685 105.59921265 C-18.64608633 101.96107105 -18.00869158 98.32228316 -17.37072754 94.68359375 C-16.30069199 88.58401409 -15.22765473 82.48496826 -14.15283203 76.38623047 C-12.90981497 69.33289558 -11.67170969 62.27871159 -10.43616152 55.22406483 C-9.24570707 48.42760468 -8.05171292 41.63177096 -6.85612488 34.83621216 C-6.34779018 31.9465055 -5.84072248 29.05658074 -5.33467102 26.16647339 C-4.62973597 22.1415877 -3.9196399 18.11762959 -3.20898438 14.09375 C-2.89413338 12.29068138 -2.89413338 12.29068138 -2.57292175 10.45118713 C-2.37946671 9.36063522 -2.18601166 8.27008331 -1.98669434 7.14648438 C-1.81930504 6.1952771 -1.65191574 5.24406982 -1.47945404 4.26403809 C-1 2 -1 2 0 0 Z " fill="#FFFFFF" transform="translate(597,469)"/>
<path d="M0 0 C8.27102344 5.8348743 12.82974251 12.48922753 16 22 C16.63735265 32.28122958 16.80376251 41.63191486 12 51 C11.36384766 52.27230469 11.36384766 52.27230469 10.71484375 53.5703125 C4.011892 65.78126081 -6.60682351 74.12010251 -19.625 78.9375 C-31.52284716 81.9887221 -44.34395945 81.24901893 -55 75 C-62.27861888 70.37363148 -66.72837431 63.21252418 -69 55 C-69.41981993 51.88264247 -69.4775804 48.82999383 -69.4375 45.6875 C-69.42992676 44.85226807 -69.42235352 44.01703613 -69.41455078 43.15649414 C-69.23703918 36.4803736 -68.10922703 30.96739845 -65 25 C-64.34644531 23.71222656 -64.34644531 23.71222656 -63.6796875 22.3984375 C-57.06093168 10.42680813 -46.69681217 2.10709031 -33.8125 -2.4375 C-22.77086924 -5.47033794 -10.17492177 -5.82545676 0 0 Z " fill="#1DFCC7" transform="translate(573,179)"/>
</svg>
