<?xml version="1.0" encoding="utf-8"?>
<!-- Generator: Adobe Illustrator 27.5.0, SVG Export Plug-In . SVG Version: 6.00 Build 0)  -->
<svg version="1.1" id="Layer_1" xmlns="http://www.w3.org/2000/svg" xmlns:xlink="http://www.w3.org/1999/xlink" x="0px" y="0px"
	 viewBox="0 0 2372 1898" style="enable-background:new 0 0 2372 1898;" xml:space="preserve">
<g>
	<g>
		<defs>
			<rect id="SVGID_1_" x="0" width="2371.708" height="1897.367"/>
		</defs>
		<use xlink:href="#SVGID_1_"  style="overflow:visible;fill:#FFFFFF;"/>
		<clipPath id="SVGID_00000173858612484050351770000015070305534467664289_">
			<use xlink:href="#SVGID_1_"  style="overflow:visible;"/>
		</clipPath>
		<g style="clip-path:url(#SVGID_00000173858612484050351770000015070305534467664289_);">
			<g>
				<path style="fill:#999999;" d="M816.505,2344.282c-36.963,0-74.01-1.022-111.123-3.064
					c-271.211-14.933-531.923-83.759-774.9-204.568c-69.758-34.879-150.435-49.541-239.78-43.587l-1.144,0.076l0.146-3.17
					c5.519-118.622,10.731-230.667-5.547-347.319c-10.07-73.293-24.171-148.473-37.809-221.177
					c-26.53-141.44-53.962-287.696-53.622-429.05c0.383-158.755,36.59-293.752,110.692-412.705
					C-82.18,337.316,13.126,42.016,3.351-249.61c-5.769-136.348-14.738-213.025-14.828-213.784l-0.155-1.311l1.308,0.177
					c147.023,19.702,282.96,64.952,426.88,112.859c50.958,16.963,103.651,34.505,156.399,50.621
					c162.461,52.221,324.451,11.599,481.11-27.686c64.738-16.235,131.681-33.022,198.384-43.345
					c318.673-50.459,606.937,3.467,950.666,79.203c22.182,5.041,45.995,6.73,69.022,8.366c39.789,2.824,77.371,5.491,103.398,24.578
					c19.169,13.418,21.158,48.502,23.263,85.646c0.934,16.482,1.9,33.523,4.448,48.817c4.096,32.762,11.032,63.972,17.74,94.155
					c6.717,30.23,13.663,61.489,17.765,94.306c29.032,179.019,66.755,342.039,106.693,514.63
					c26.746,115.579,54.401,235.09,78.984,359.127c53.016,262.554,87.326,566.911-60.184,833.563
					c-71.95,130.577-151.267,266.202-259.63,363.451c-144.424,127.435-340.988,108.089-531.078,89.386
					c-54.103-5.324-110.045-10.83-163.243-12.664c-43.279-3.083-79.755,1.354-111.557,13.586
					C1277.819,2303.978,1048.824,2344.28,816.505,2344.282z M-271.076,2089.723c74.562,0,142.515,15.115,202.471,45.094
					c483.889,240.592,1054.903,272.425,1566.626,87.336c32.069-12.335,68.834-16.818,112.381-13.712
					c53.225,1.835,109.202,7.343,163.335,12.67c189.656,18.665,385.769,37.962,529.517-88.876
					c108.12-97.03,187.331-232.485,259.198-362.912c147.189-266.071,112.913-569.978,59.969-832.171
					c-24.578-124.008-52.23-243.505-78.97-359.067c-39.948-172.626-77.677-335.678-106.725-514.802
					c-4.094-32.758-11.031-63.968-17.739-94.152c-6.717-30.229-13.663-61.489-17.765-94.306
					c-2.562-15.361-3.531-32.459-4.468-48.996c-2.076-36.634-4.038-71.236-22.41-84.097c-25.57-18.75-62.865-21.396-102.351-24.199
					c-23.104-1.64-46.995-3.334-69.324-8.409c-343.506-75.689-631.576-129.576-949.903-79.179
					c-66.611,10.309-133.508,27.084-198.202,43.309c-156.935,39.353-319.215,80.049-482.22,27.654
					c-52.759-16.12-105.463-33.664-156.434-50.631C272.505-397.461,137.044-442.556-9.293-462.323
					c1.201,10.673,9.328,85.903,14.691,212.636C10.722-90.85-14.559,66.563-71.886,231.551
					c-48.95,140.879-121.881,287.831-222.958,449.253c-164.787,264.526-109.886,557.228-56.793,840.292
					c13.641,72.728,27.747,147.932,37.824,221.273c16.303,116.838,11.087,228.975,5.564,347.695l-0.042,0.879
					C-295.716,2090.131-283.3,2089.723-271.076,2089.723z"/>
			</g>
			<g>
				<path style="fill:#999999;" d="M856.862,2259.903c-67.198,0.001-134.792-2.929-202.713-8.801
					c-260.412-22.513-520.406-87.655-772.76-193.616c-52.992-21.679-114.77-30.461-188.881-26.858l-0.099-2.045
					c74.414-3.627,136.48,5.214,189.764,27.011c522.045,219.201,1063.821,261.677,1566.772,122.843
					c71.311-18.487,145.871-22.168,221.609-10.949c223.368,32.294,458.55,54.492,662.906-57.017l0.982,1.797
					c-204.909,111.814-440.47,89.591-664.183,57.247c-75.478-11.18-149.758-7.51-220.784,10.901
					C1257.851,2233.312,1059.247,2259.901,856.862,2259.903z"/>
			</g>
			<g>
				<path style="fill:#999999;" d="M888.837,2174.723c-339.352,0-674.543-56.449-1001.924-169.097
					c-65.884-22.916-134.831-27.41-193.587-28.785l0.048-2.048c58.915,1.378,128.06,5.889,194.208,28.898
					c512.398,176.31,1044.177,214.886,1580.562,114.65c47.706-11.227,95.277-7.95,139.574-2.741
					c13.463,2.171,26.896,4.365,40.342,6.563c238.432,38.954,484.985,79.232,704.552-45.97l1.013,1.779
					c-220.193,125.565-467.112,85.224-705.896,46.211c-13.444-2.196-26.877-4.391-40.294-6.554
					c-44.066-5.183-91.425-8.446-138.87,2.716C1274.513,2156.607,1080.978,2174.723,888.837,2174.723z"/>
			</g>
			<g>
				<path style="fill:#999999;" d="M2027.657,2131.602c-5.39,0-10.789-0.048-16.243-0.143
					c-124.885-2.17-254.913-28.468-380.661-53.901c-19.613-3.967-39.233-7.935-58.853-11.82
					c-38.575-8.267-74.064-10.863-111.688-8.175c-32.133,2.295-64.835,8.566-96.461,14.628
					c-43.582,8.356-88.677,16.993-133.028,15.412c-70.361-2.071-141.98-3.536-211.24-4.954
					c-387.991-7.945-789.192-16.161-1176.228-134.356c-47.309-13.142-95.679-16.123-149.46-18.431l0.088-2.046
					c53.909,2.313,102.402,5.304,149.945,18.51c386.789,118.12,787.845,126.333,1175.697,134.274
					c69.265,1.418,140.888,2.885,211.265,4.955c44.149,1.586,89.107-7.039,132.576-15.375c31.685-6.075,64.447-12.356,96.701-14.66
					c37.829-2.704,73.492-0.092,112.247,8.213c19.609,3.882,39.232,7.852,58.847,11.818
					c250.841,50.731,510.222,103.192,743.067-34.004l1.04,1.766C2274.55,2102.656,2160.677,2131.598,2027.657,2131.602z"/>
			</g>
			<g>
				<path style="fill:#999999;" d="M2061.394,2095.207c-8.423,0-16.902-0.125-25.477-0.371
					c-124.044-3.579-252.653-32.131-377.029-59.744c-54.482-12.094-110.818-24.602-166.167-34.888
					c-58.072-11.616-115.652-4.528-171.335,2.326c-49.015,6.031-99.694,12.264-150.83,5.876
					c-181.062-18.272-363.052-22.46-539.051-26.511c-113.154-2.604-230.16-5.297-345.632-11.712
					c-164.694-8.984-317.505-38.182-445.264-65.559c-48.089-10.687-97.479-16.355-146.808-16.851l0.021-2.048
					c49.471,0.497,99.004,6.183,147.224,16.898c127.673,27.36,280.385,56.54,444.94,65.515
					c115.438,6.413,232.428,9.106,345.565,11.71c176.038,4.052,358.069,8.242,539.234,26.525
					c50.906,6.363,101.46,0.142,150.349-5.874c55.848-6.872,113.594-13.98,171.974-2.304
					c55.37,10.289,111.723,22.801,166.223,34.901c248.087,55.077,504.62,112.03,739.084-27.167l1.045,1.76
					C2300.433,2066.479,2189.601,2095.204,2061.394,2095.207z"/>
			</g>
			<g>
				<path style="fill:#999999;" d="M2070.486,2059.543c-21.398,0.001-43.179-0.765-65.407-2.295
					c-125.781-8.654-265.741-42.512-427.879-103.515c-31.423-12.085-67.972-20.999-111.745-27.252
					c-43.579-5.448-87.952-2.676-130.865,0.009c-43.007,2.688-87.479,5.467-131.265-0.007
					c-281.854-36.662-563.755-32.855-836.381-29.178c-52.445,0.708-106.674,1.44-160.196,1.879
					c-98.878,1.564-198.53-12.421-294.903-25.95c-71.473-10.034-145.379-20.409-218.591-24.404l0.112-2.045
					c73.299,4,147.248,14.381,218.763,24.42c96.295,13.518,195.838,27.487,294.594,25.93c53.523-0.439,107.751-1.171,160.192-1.879
					c272.697-3.68,554.675-7.484,836.667,29.194c43.591,5.45,87.966,2.674,130.879-0.006c43.006-2.688,87.481-5.468,131.265,0.006
					c43.945,6.277,80.641,15.228,112.201,27.367c225.586,84.875,558.884,178.946,847.503,16.661l1.003,1.784
					C2319.971,2030.126,2202.982,2059.541,2070.486,2059.543z"/>
			</g>
			<g>
				<path style="fill:#999999;" d="M2104.458,2018.14c-32.691,0-66.257-1.855-100.77-5.55
					c-132.814-14.22-280.373-56.701-451.108-129.873c-34.487-15.676-66.53-24.834-95.256-27.229
					c-53.84-3.845-108.327-7.312-161.019-10.666c-133.926-8.522-272.412-17.335-409.732-33.028
					c-59.501-8.923-114.746-7.767-160.945-5.456c-98.197,2.339-198.03,7.881-294.579,13.24
					c-241.956,13.434-492.153,27.323-738.91-7.891l0.29-2.027c246.557,35.184,496.65,21.301,738.506,7.873
					c96.563-5.361,196.414-10.904,294.618-13.243c46.272-2.312,101.644-3.473,161.289,5.472
					c137.233,15.684,275.693,24.495,409.593,33.016c52.697,3.353,107.189,6.821,161.049,10.668
					c28.972,2.415,61.242,11.633,95.926,27.397c239.207,102.516,593.007,218.951,902.181,47.158l0.995,1.789
					C2350.114,1988.952,2234.176,2018.139,2104.458,2018.14z"/>
			</g>
			<g>
				<path style="fill:#999999;" d="M2162.319,1962.158c-40.357,0.001-82.173-2.804-125.635-8.393
					c-153.651-19.762-307.468-70.76-456.218-120.077c-11.123-3.688-22.211-7.364-33.265-11.016
					c-492.725-162.465-1008.468-100.22-1507.232-40.026l-37.91,4.571c-77.229,9.905-152.932,2.464-226.142-4.732
					c-27.92-2.744-56.792-5.58-85.412-7.429l0.132-2.042c28.654,1.849,57.542,4.689,85.48,7.435
					c73.095,7.183,148.679,14.61,225.688,4.738l37.918-4.572c249.815-30.15,508.136-61.326,759.895-63.95
					c282.188-2.953,526.932,31.099,748.224,104.066c11.055,3.652,22.145,7.328,33.267,11.016
					c302.969,100.446,616.25,204.316,907.58,51.953l0.949,1.815C2391.598,1936.785,2283.667,1962.154,2162.319,1962.158z"/>
			</g>
			<g>
				<path style="fill:#999999;" d="M2204.31,1903.841c-201.801,0.007-404.648-66.926-588.878-135.797
					c-449.813-167.482-939.784-176.734-1588.693-29.998c-102.394,21.94-210.166,21.986-339.175,0.137l0.341-2.019
					c128.747,21.804,236.271,21.766,338.393-0.119c301.687-68.22,565.372-101.836,806.113-102.766
					c284.306-1.117,540.708,42.355,783.736,132.845c282.712,105.687,609.364,206.816,908.257,67.964l0.864,1.859
					C2420.631,1884.556,2312.612,1903.839,2204.31,1903.841z"/>
			</g>
			<g>
				<path style="fill:#999999;" d="M2255.066,1838.628c-5.728,0-11.456-0.055-17.217-0.163
					c-104.841-1.988-215.016-22.002-327.465-59.484c-313.775-102.041-654.317-200.782-1018.322-232.063
					c-238.327-20.373-457.13,37.592-688.785,98.956c-76.839,20.354-156.295,41.401-236.616,59.404
					c-90.259,17.552-180.415,15.931-283.753-5.096l0.408-2.007c103.067,20.969,192.97,22.59,282.925,5.099
					c80.257-17.989,159.691-39.03,236.511-59.38c231.834-61.412,450.812-119.411,689.485-99.017
					c364.212,31.299,704.889,130.077,1018.788,232.158c236.793,78.931,461.718,79.049,650.456,0.344l0.789,1.891
					C2467.757,1818.682,2364.478,1838.627,2255.066,1838.628z"/>
			</g>
			<g>
				<path style="fill:#999999;" d="M2341.808,1749.544c-171.497,0.004-341.332-43.691-517.735-89.07
					c-80.34-20.667-163.413-42.038-246.716-58.959c-86.333-19.186-169.67-38.12-250.261-56.43
					c-102.578-23.307-208.648-47.408-320.474-71.917c-290.957-61.504-560.7,30.639-821.563,119.745
					c-40.169,13.72-81.705,27.909-122.728,41.341c-135.656,44.236-265.626,52.728-386.31,25.239l0.456-1.997
					c120.314,27.404,249.919,18.93,385.218-25.188c41.007-13.428,82.539-27.614,122.701-41.333
					c130.753-44.662,265.956-90.844,401.857-117.125c152.335-29.461,289.976-30.337,420.8-2.683
					c111.841,24.512,217.915,48.613,320.497,71.921c80.589,18.31,163.922,37.243,250.234,56.424
					c83.335,16.929,166.435,38.305,246.799,58.978c263.297,67.731,511.989,131.709,773.104,51.998l0.597,1.96
					C2511.739,1738.868,2426.563,1749.541,2341.808,1749.544z"/>
			</g>
			<g>
				<path style="fill:#999999;" d="M2399.569,1651.224c-208.861,0.005-415.052-49.087-630.02-100.258
					c-24.887-5.924-49.818-11.859-74.801-17.724c-44.87-9.971-89.939-16.038-141.824-19.09c-20.739-1.802-41.45-3.028-61.48-4.212
					c-40.405-2.388-82.186-4.857-124.325-12.185c-69.94-13.988-137.191-34.97-202.228-55.263
					c-103.256-32.215-200.785-62.646-308.287-67.606c-224.667-11.914-434.655,69.028-637.732,147.32
					c-75.941,29.277-154.468,59.552-233.007,84.742c-95.006,32.504-199.141,35.391-318.33,8.83l0.445-2
					c118.813,26.48,222.583,23.61,317.239-8.773c78.503-25.18,157.002-55.444,232.917-84.711
					c203.276-78.368,413.459-159.406,638.569-147.453c107.758,4.973,205.41,35.441,308.796,67.697
					c64.985,20.276,132.184,41.242,201.995,55.203c41.998,7.304,83.72,9.77,124.069,12.155c20.044,1.184,40.768,2.409,61.507,4.214
					c51.969,3.056,97.141,9.138,142.132,19.135c24.996,5.869,49.93,11.804,74.82,17.729
					c293.059,69.76,569.864,135.645,859.052,78.413l0.397,2.008C2552.136,1644.702,2475.659,1651.221,2399.569,1651.224z"/>
			</g>
			<g>
				<path style="fill:#999999;" d="M-211.122,1583.193c-43.17,0-86.923-4.631-131.381-15.142l0.472-1.992
					c214.139,50.615,412.623-35.642,604.572-119.066c79.587-34.59,161.885-70.357,244.274-95.954
					c100.135-30.345,189.988-46.771,274.7-50.222c98.146-4.004,190.622,10.148,274.841,42.05l10.942,4.033
					c101.611,37.47,197.589,72.863,302.855,86.022c55.293,7.275,111.533,8.36,165.921,9.41c47.636,0.919,96.893,1.87,145.361,6.971
					c96.19,8.893,193.139,22.536,286.898,35.733c221.993,31.245,451.538,63.551,681.73,33.454l0.266,2.032
					c-230.456,30.131-460.15-2.194-682.281-33.458c-93.735-13.192-190.66-26.834-286.814-35.722
					c-48.394-5.095-97.607-6.045-145.199-6.963c-54.444-1.051-110.742-2.137-166.141-9.427
					c-105.494-13.185-201.579-48.618-303.304-86.131l-10.948-4.036c-155.855-59.037-335.18-56.348-548.224,8.211
					c-82.277,25.562-164.521,61.307-244.059,95.875C110.893,1515.135-45.709,1583.193-211.122,1583.193z"/>
			</g>
			<g>
				<path style="fill:#999999;" d="M-192.802,1531.037c-58.915,0-115.193-8.252-160.754-16.257l0.355-2.016
					c61.004,10.716,141.275,21.879,221.219,13.002c82.429-9.159,158.675-40.085,232.41-69.992
					c14.111-5.724,28.702-11.641,43.13-17.325c48.604-18.995,97.995-40.324,145.76-60.948
					c187.356-80.9,381.098-164.557,592.035-138.458c88.238,9.988,165.715,39.625,247.742,71.001
					c51.024,19.518,103.785,39.7,159.277,54.639c45.543,10.716,92.667,21.808,138.94,19.082
					c289.454-12.922,587.828-9.347,912.183,10.922c80.262,6.176,163.095,2.999,243.201-0.073
					c25.989-0.996,52.859-2.026,79.101-2.712l0.053,2.048c-26.228,0.684-53.093,1.715-79.075,2.711
					c-80.163,3.072-163.06,6.249-243.422,0.071c-324.266-20.267-622.566-23.84-911.936-10.922
					c-46.549,2.743-93.829-8.384-139.547-19.14c-55.624-14.975-108.434-35.176-159.507-54.711
					c-81.902-31.329-159.261-60.92-247.25-70.882c-210.415-26.033-403.879,57.513-590.983,138.306
					c-47.781,20.632-97.189,41.967-145.822,60.973c-14.419,5.68-29.003,11.596-43.109,17.317
					c-73.866,29.959-150.244,60.94-232.954,70.13C-152.192,1530.071-172.656,1531.037-192.802,1531.037z"/>
			</g>
			<g>
				<path style="fill:#999999;" d="M-237.108,1469.045c-42.347,0-85.196-4.308-128.224-14.247l0.461-1.995
					c205.195,47.393,406.637-33.778,568.498-99.006c38.634-15.548,77.888-32.538,115.85-48.969
					c183.55-79.443,373.346-161.596,583.78-123.124c77.104,13.707,148.097,43.026,216.752,71.379
					c41.123,16.983,83.646,34.543,127.452,48.806c88.461,26.805,179.958,54.534,275.284,35.469
					c400.132-86.742,783.236-86.917,1141.338-79.667l-0.043,2.048c-357.975-7.252-740.946-7.074-1140.876,79.623
					c-95.845,19.168-187.59-8.632-276.317-35.52c-43.901-14.293-86.461-31.87-127.618-48.867
					c-68.555-28.312-139.443-57.586-216.333-71.256c-209.826-38.352-399.334,43.666-582.605,122.989
					c-37.974,16.435-77.24,33.431-115.898,48.988C76.158,1407.374-76.88,1469.045-237.108,1469.045z"/>
			</g>
			<g>
				<path style="fill:#999999;" d="M-250.193,1398.641c-41.85,0-84.195-3.596-127.12-11.606l0.376-2.013
					c236.67,44.167,456.349-46.291,668.79-133.77c83.441-34.359,169.723-69.888,255.922-96.824
					c108.577-34.746,270.377-73.963,421.216-13.628c44.252,17.41,88.66,39.03,131.607,59.938
					c118.823,57.849,241.698,117.666,375.76,95.654c123.602-20.878,245.306-50.019,363.001-78.199
					c274.852-65.809,534.466-127.964,817.249-93.803l-0.246,2.035c-282.427-34.126-541.858,27.996-816.527,93.76
					c-117.729,28.188-239.466,57.336-363.14,78.227c-134.718,22.12-257.883-37.843-376.994-95.832
					c-42.911-20.89-87.285-42.492-131.465-59.875c-150.23-60.093-311.561-20.975-419.844,13.675
					c-86.119,26.912-172.359,62.423-255.759,96.767C118.398,1324.892-60.708,1398.641-250.193,1398.641z"/>
			</g>
			<g>
				<path style="fill:#999999;" d="M-284.722,1316.17c-34.467,0-69.191-1.994-104.279-6.327l0.25-2.032
					c249.237,30.769,482.399-56.575,707.886-141.043c91.304-34.202,185.715-69.569,280.545-97
					c128.083-37.842,253.914-32.159,363.883,16.433c45.2,19.37,90.188,43.082,133.694,66.015
					c121.978,64.292,248.106,130.766,392.766,108.676c136.489-19.27,260.448-71.768,380.327-122.54
					c84.465-35.773,171.807-72.765,264.001-98.622c167.284-46.621,337.68-59.936,506.457-39.579l-0.245,2.033
					c-168.506-20.324-338.636-7.029-505.661,39.518c-92.066,25.823-179.346,62.788-263.753,98.537
					c-120,50.821-244.084,103.374-380.828,122.679c-145.305,22.203-271.744-44.443-394.018-108.889
					c-43.471-22.913-88.423-46.606-133.557-65.949c-109.531-48.397-234.876-54.047-362.491-16.344
					c-94.759,27.41-189.134,62.762-280.401,96.952C125.849,1241.36-73.873,1316.17-284.722,1316.17z"/>
			</g>
			<g>
				<path style="fill:#999999;" d="M1427.81,1231.697c-134.484,0.004-251.969-70.592-366.055-139.137
					c-33.277-19.994-67.687-40.669-101.825-59.136c-165.365-91.545-341.818-52.428-477.069-8.12
					c-40.334,13.317-81.298,27.292-120.912,40.807c-244.827,83.523-497.986,169.89-760.902,155.328l0.112-2.046
					c262.509,14.539,515.487-71.761,760.129-155.222c39.619-13.516,80.587-27.493,120.933-40.814
					c91.354-29.928,170.277-45.352,241.282-47.157c88.308-2.228,165.983,15.884,237.411,55.425
					c34.17,18.486,68.6,39.172,101.896,59.177c129.618,77.878,263.642,158.41,421.752,134.586
					c159.216-24.494,300.976-97.534,438.067-168.169c77.001-39.674,156.624-80.701,238.93-113.034
					c141.217-55.952,299.721-74.647,458.376-54.07l-0.263,2.032c-158.306-20.535-316.464-1.884-457.361,53.944
					c-82.212,32.297-161.787,73.299-238.743,112.949c-137.238,70.711-279.147,143.83-438.696,168.376
					C1465.502,1230.334,1446.488,1231.697,1427.81,1231.697z"/>
			</g>
			<g>
				<path style="fill:#999999;" d="M1427.171,1195.787c-150.986,0.004-280.452-87.123-406.107-171.678
					c-30.719-20.671-62.482-42.046-93.957-61.717c-161.704-99.29-336.67-61.867-487.977-18.997
					c-50.548,14.722-101.507,30.385-150.789,45.534c-233.103,71.648-453.274,139.282-692.208,135.345l0.035-2.048
					c238.594,3.984,458.628-63.655,691.57-135.255c49.29-15.151,100.258-30.817,150.827-45.545
					c73.454-20.812,160.324-42.282,247.741-43.732c91.317-1.516,170.419,19.077,241.881,62.957
					c31.509,19.694,63.288,41.078,94.021,61.759c140.314,94.42,285.397,192.042,459.636,167.481
					c159.786-21.667,294.095-101.739,436.291-186.512l2.973-1.773c106.588-64.513,211.52-125.842,323.239-167.107
					c126.176-46.606,241.73-59.269,353.259-38.714l-0.37,2.013c-237.803-43.827-446.419,67.169-675.073,205.564l-2.978,1.776
					c-142.382,84.884-276.865,165.06-437.061,186.783C1463.484,1194.547,1445.17,1195.786,1427.171,1195.787z"/>
			</g>
			<g>
				<path style="fill:#999999;" d="M1425.461,1152.406c-12.924,0-25.955-0.469-39.127-1.441
					c-143.075-12.841-256.541-92.74-376.668-177.331c-57.04-40.166-116.021-81.7-178.075-114.975
					c-81.269-43.025-174.766-52.535-294.243-29.935c-127.01,22.604-251.334,54.52-371.566,85.383
					c-191.313,49.112-372.016,95.499-566.336,109.083l-0.144-2.043c194.135-13.571,374.751-59.937,565.972-109.025
					c120.267-30.872,244.629-62.797,371.705-85.412c119.944-22.692,213.869-13.115,295.575,30.141
					c62.169,33.338,121.202,74.907,178.291,115.108c119.897,84.428,233.146,164.175,375.657,176.964
					c221.728,16.354,407.905-110.024,587.954-232.242c90.131-61.182,183.332-124.446,279.894-169.083
					c83.521-39.442,188.792-49.863,321.818-31.853l-0.275,2.029c-132.625-17.956-237.517-7.589-320.677,31.678
					c-96.417,44.57-189.546,107.788-279.609,168.923C1805.944,1033.544,1630.835,1152.401,1425.461,1152.406z"/>
			</g>
			<g>
				<path style="fill:#999999;" d="M1420.995,1113.193c-174.439,0.005-310.802-104.121-454.877-214.123
					c-44.481-33.962-90.477-69.08-137.346-100.539c-123.794-84.405-260.465-72.117-389.72-46.269
					c-103.746,20.75-204.975,44.97-302.871,68.393c-177.52,42.474-345.197,82.593-524.934,103.255l-0.234-2.034
					c179.615-20.647,347.233-60.753,524.692-103.213c97.914-23.427,199.163-47.653,302.945-68.409
					c129.692-25.937,266.855-38.246,391.271,46.58c46.914,31.491,92.935,66.628,137.44,100.609
					c149.247,113.951,290.217,221.584,473.617,213.248c211.235-8.802,379.33-131.339,557.293-261.069
					c41.467-30.229,84.347-61.488,127.587-91.016c135.056-93.713,280.111-131.134,431.116-111.21l-0.268,2.03
					c-150.487-19.847-295.055,17.449-429.686,110.866c-43.221,29.515-86.087,60.765-127.541,90.985
					c-178.221,129.919-346.558,252.632-558.411,261.459C1434.325,1113.043,1427.625,1113.193,1420.995,1113.193z"/>
			</g>
			<g>
				<path style="fill:#999999;" d="M1440.482,1067.551c-20.822,0-41.595-1.328-62.393-3.975
					c-177.562-20.89-310.862-126.996-451.99-239.331c-42.807-34.075-87.073-69.31-132.851-102.192
					c-101.221-70.62-229.581-87.538-392.406-51.716c-77.024,17.47-153.042,36.536-226.555,54.974
					c-183.9,46.124-357.599,89.69-543.456,109.487l-0.216-2.037c185.713-19.782,359.345-63.332,543.173-109.437
					c73.526-18.442,149.553-37.51,226.607-54.987c163.423-35.954,292.31-18.93,394.037,52.042
					c45.83,32.921,90.116,68.172,132.943,102.262c140.892,112.148,273.971,218.079,450.963,238.9
					c233.688,29.738,421.963-114.302,604.021-253.609c51.937-39.741,105.643-80.835,159.885-117.6
					c126.377-87.06,264.051-122.472,398.146-102.37l-0.304,2.025c-133.565-20.018-270.738,15.272-396.686,102.035
					c-54.199,36.735-107.882,77.812-159.798,117.535c-91.388,69.928-185.889,142.237-284.614,191.64
					C1610.194,1045.632,1525.049,1067.549,1440.482,1067.551z"/>
			</g>
			<g>
				<path style="fill:#999999;" d="M1438.582,1015.525c-11.04,0-22.077-0.366-33.125-1.096
					c-217.737-12.659-390.659-158.312-557.889-299.167c-13.576-11.435-27.144-22.863-40.727-34.216
					c-96.78-83.702-231.82-115.473-370.515-87.164c-99.915,20.185-197.095,44.348-291.076,67.714
					c-164.783,40.973-320.427,79.672-487.778,98.173l-0.224-2.035c167.215-18.485,322.794-57.169,487.509-98.124
					c94.001-23.374,191.204-47.542,291.161-67.736c139.318-28.43,274.998,3.503,372.249,87.612
					c13.572,11.344,27.142,22.774,40.721,34.21c166.972,140.642,339.63,286.07,556.695,298.69
					c225.009,14.848,404.476-125.51,578.033-261.259c49.73-38.895,101.152-79.116,153.156-115.397
					c115.144-83.012,249.898-117.846,389.666-100.732l-0.248,2.032c-139.26-17.047-273.502,17.659-388.234,100.371
					c-51.969,36.258-103.37,76.46-153.078,115.34c-87.124,68.144-177.214,138.607-271.599,188.514
					C1619.028,991.088,1528.816,1015.523,1438.582,1015.525z"/>
			</g>
			<g>
				<path style="fill:#999999;" d="M1433.349,954.789c-211.218,0.005-393.55-139.763-570.9-275.704
					c-39.768-30.482-80.887-62-121.085-90.838c-85.659-58.026-183.596-78.744-283.207-59.903
					c-104.557,20.48-206.891,45.076-305.856,68.86c-156.644,37.649-304.6,73.208-461.818,94.244l-0.271-2.029
					c157.113-21.023,305.02-56.572,461.611-94.206c98.986-23.79,201.343-48.391,305.947-68.88
					c100.161-18.947,198.625,1.88,284.767,60.234c40.246,28.872,81.379,60.401,121.158,90.892
					c213.976,164.015,435.237,333.607,705.391,255.772c166.96-49.329,295.449-147.644,431.482-251.731
					c58.312-44.616,118.608-90.753,182.648-133.169c88.741-55.164,200.313-75.927,331.646-61.735l-0.221,2.038
					c-130.868-14.148-242.003,6.52-330.318,61.419c-63.958,42.363-124.225,88.477-182.51,133.073
					c-136.187,104.206-264.822,202.632-432.152,252.071C1522.823,948.695,1477.45,954.789,1433.349,954.789z"/>
			</g>
			<g>
				<path style="fill:#999999;" d="M1452.669,870.241c-114.911,0.003-231.267-30.025-354.805-91.441
					c-125.21-62.248-242.213-149.216-340.15-226.079c-177.039-136.34-375.849-78.614-568.107-22.784
					c-65.249,18.947-132.719,38.54-198.412,50.294c-19.657,3.575-39.057,7.148-58.283,10.691
					c-69.716,12.845-135.565,24.979-203.923,35.369l-0.306-2.024c68.324-10.385,134.158-22.516,203.858-35.359
					c19.227-3.543,38.629-7.118,58.291-10.693c65.588-11.736,133.007-31.313,198.204-50.245
					c96.32-27.97,195.918-56.892,291.638-61.132c107.447-4.753,198.489,22.805,278.298,84.266
					c202.66,159.051,442.178,327.738,720.243,316.552c202.692-8.719,359.257-127.001,525.015-252.229
					c40.39-30.514,82.155-62.066,124.349-91.658c107.154-73.985,237.395-102.515,376.644-82.516l-0.291,2.026
					c-138.732-19.922-268.468,8.486-375.184,82.171c-42.156,29.566-83.908,61.107-124.283,91.61
					c-166.02,125.426-322.832,243.895-526.164,252.641C1470.436,870.06,1461.547,870.24,1452.669,870.241z"/>
			</g>
			<g>
				<path style="fill:#999999;" d="M1445.387,762.365c-110.047,0.001-221.581-19.959-332.734-59.637
					c-125.385-44.757-254.902-116.353-384.957-212.796c-85.329-62.06-196.581-85.268-313.25-65.35
					c-95.173,17.41-187.421,40.006-276.633,61.857c-124.494,30.496-242.086,59.297-367.507,75.428l-0.262-2.032
					c125.307-16.115,242.843-44.905,367.281-75.385c89.241-21.859,181.52-44.462,276.764-61.884
					c117.225-20.019,229.029,3.322,314.819,65.716c278.977,206.881,543.142,294.351,807.586,267.42
					c193.431-18.871,345.125-124.837,505.725-237.025c24.586-17.174,50.007-34.933,75.445-52.26
					c106.676-69.465,234.372-92.702,379.563-69.063l-0.328,2.021c-144.668-23.551-271.881-0.419-378.101,68.748
					c-25.409,17.308-50.826,35.063-75.406,52.233c-160.827,112.346-312.734,218.46-506.696,237.383
					C1506.411,760.824,1475.95,762.364,1445.387,762.365z"/>
			</g>
			<g>
				<path style="fill:#999999;" d="M1376.957,638.163c-110.687,0.003-220.585-15.236-327.258-45.41
					c-121.62-34.402-239.128-88.278-349.258-160.131c-88.753-57.429-192.32-74.833-307.809-51.737
					c-88.141,15.484-173.566,34.288-256.179,52.474C26.145,457.64-78.042,480.573-188.765,496.48l-0.291-2.026
					c110.646-15.896,214.799-38.824,325.066-63.096c82.634-18.19,168.082-36.998,256.241-52.485
					c116.008-23.206,220.084-5.699,309.304,52.031c437.004,285.119,967.413,272.87,1418.843-32.757
					c110.769-75.647,243.48-63.424,369.919-44.421l-0.304,2.024c-126.039-18.941-258.305-31.141-368.463,44.09
					c-218.643,148.026-463.277,230.238-707.46,237.751C1401.712,637.972,1389.32,638.163,1376.957,638.163z"/>
			</g>
			<g>
				<path style="fill:#999999;" d="M1279.154,488.27c-248.683,0.004-486.187-45.242-706.883-134.747
					c-151.576-60.633-313.347-17.72-469.79,23.779c-83.016,22.022-168.858,44.793-252.698,52.139l-0.178-2.04
					c83.664-7.329,169.42-30.078,252.353-52.077c156.764-41.585,318.867-84.586,471.079-23.701
					c467.408,189.559,1009.248,179.862,1525.71-27.307c132.418-55.909,275.432-37.298,385.231-14.839l-0.411,2.007
					c-109.511-22.401-252.125-40.97-384.04,14.726c-248.166,99.547-504.04,153.778-760.533,161.194
					C1318.988,487.98,1299.02,488.27,1279.154,488.27z"/>
			</g>
			<g>
				<path style="fill:#999999;" d="M1002.933,377.722c-64.804,0-129.897-2.412-195.518-7.744
					c-54.778-4.564-106.343-24.746-156.211-44.263c-40.106-15.696-81.579-31.928-125.166-40.403
					c-146.066-24.938-285.546,5.412-420.431,34.761c-71.911,15.647-146.269,31.827-221.187,39.633l-0.214-2.037
					c74.806-7.794,149.108-23.961,220.964-39.597c135.077-29.393,274.747-59.782,421.234-34.774
					c43.793,8.514,85.354,24.78,125.545,40.511c49.731,19.464,101.154,39.59,155.632,44.13
					c362.353,29.44,709.076-30.231,1076.155-93.409c73.016-12.567,148.517-25.562,223.419-37.657
					c130.022-22.615,259.309,2.38,370.282,27.58l-0.453,1.997c-110.778-25.158-239.824-50.11-369.49-27.558
					c-74.903,12.095-150.399,25.089-223.41,37.654C1583.329,328.309,1296.221,377.721,1002.933,377.722z"/>
			</g>
			<g>
				<path style="fill:#999999;" d="M813.21,310.25c-41.366,0-81.997-5.808-120.802-22.271
					c-199.825-88.095-409.949-55.715-613.15-24.4C25.086,271.93-30.93,280.562-85.42,286.634l-0.227-2.035
					c54.448-6.068,110.441-14.697,164.593-23.043c203.493-31.359,413.916-63.786,614.276,24.543
					c85.633,36.33,180.592,20.38,272.424,4.956l13.72-2.299c36.947-6.59,73.846-13.271,110.692-19.941
					c228.416-41.353,464.61-84.112,694.372-100.723c257.062-18.588,481.407-1.977,685.846,50.772l-0.512,1.984
					c-454.901-117.377-903.94-36.084-1379.341,49.982c-36.846,6.671-73.748,13.351-110.709,19.945l-13.73,2.3
					C915.334,301.582,863.727,310.249,813.21,310.25z"/>
			</g>
			<g>
				<path style="fill:#999999;" d="M777.456,248.535c-19.925,0.001-39.476-2.75-57.706-9.694
					c-264.258-91.796-529.9-64.2-779.34-28.067l-0.293-2.027c249.686-36.169,515.61-63.788,780.333,28.17
					c59.471,22.652,133.633,0.084,187.785-16.398C1485.94,40.374,2008.805,24.35,2462.3,172.892l-0.637,1.947
					C2008.575,26.431,1486.132,42.461,908.84,222.477C870.912,234.02,823.217,248.533,777.456,248.535z"/>
			</g>
			<g>
				<path style="fill:#999999;" d="M727.286,191.055c-8.864,0-17.877-1.172-26.61-4.083
					C440.049,86.277,168.912,105.057-38.187,132.667l-0.271-2.029c207.341-27.644,478.81-46.441,739.827,54.408
					c25.562,8.522,53.811,1.731,73-5.465C1065.875,74.111,1348.101,13.303,1613.224-1.157
					c300.479-16.385,583.204,26.686,840.301,128.027l-0.752,1.905C1966.267-62.993,1401.809-45.256,775.078,181.501
					C762.09,186.372,744.993,191.055,727.286,191.055z"/>
			</g>
			<g>
				<path style="fill:#999999;" d="M712.579,136.32c-9.051,0-17.614-1.316-25.557-3.963
					C467.546,51.361,229.296,24.898-21.135,53.686l-0.235-2.035c250.753-28.828,489.32-2.324,709.071,78.775
					c27.063,9.019,56.099,0.539,75.689-8.168C1337.574-122.571,1934.431-137.34,2444.033,80.67l-0.805,1.883
					c-509.085-217.788-1105.37-203.02-1679.02,41.583C745.993,132.231,728.531,136.32,712.579,136.32z"/>
			</g>
			<g>
				<path style="fill:#999999;" d="M692.435,81.651c-24.982,0.001-48.981-4.94-71.045-14.87
					C413.441-30.069,186.373-33.292-8.321-23.67l-0.101-2.045C186.52-35.348,413.9-32.116,622.241,64.92
					c49.078,22.085,107.931,19.178,165.703-8.19c259.617-123.754,536.364-187.775,822.549-190.284
					c280.387-2.432,557.467,54.051,823.572,167.953l-0.805,1.883c-542.833-232.35-1126.84-224.431-1644.438,22.297
					C756.42,73.93,723.66,81.651,692.435,81.651z"/>
			</g>
			<g>
				<path style="fill:#999999;" d="M683.94,27.494c-7.598,0-15.048-1.132-21.629-4.421C404.712-71.483,200.548-109.236,0.448-99.272
					l-0.101-2.046c200.389-9.975,404.8,27.813,662.776,122.513c14.195,7.091,32.88,3.736,47.896,1.039
					c2.133-0.383,4.205-0.756,6.197-1.088c73.356-22.154,146.877-47.353,217.977-71.723
					c207.569-71.143,422.207-144.709,650.55-146.748c252.758,0,493.949,76.423,727.201,150.328
					c36.343,11.517,73.925,23.425,110.846,34.814l-0.603,1.957c-36.928-11.393-74.514-23.301-110.862-34.818
					c-233.102-73.86-474.14-150.233-726.573-150.233c-228.003,2.036-442.479,75.547-649.895,146.637
					C864.741-24.263,791.201,0.942,717.68,23.137c-2.111,0.362-4.175,0.732-6.3,1.113C702.922,25.769,693.319,27.494,683.94,27.494z
					"/>
			</g>
			<g>
				<path style="fill:#999999;" d="M683.848-28.663c-12.603,0-25.276-1.646-37.767-5.548
					C436.904-107.558,230.516-173.427,5.167-173.938l0.005-2.048c225.667,0.512,432.237,66.434,641.552,139.831
					c46.236,14.448,95.396-2.608,133.055-19.087c248.253-104.152,497.694-162.978,741.41-174.85
					c264.584-12.895,516.118,30.32,747.642,128.424c43.358,17.854,92.07,32.068,144.773,42.247l-0.389,2.011
					c-52.837-10.204-101.681-24.46-145.174-42.369C1701.894-339.67,1146.671-206.945,780.587-53.36
					C752.724-41.168,718.583-28.663,683.848-28.663z"/>
			</g>
			<g>
				<path style="fill:#999999;" d="M677.102-87.195c-7.628,0-15.292-1.125-22.929-4.398
					c-44.902-13.635-90.091-28.354-133.792-42.589C348.603-190.133,186.348-242.982,6.191-247.828l0.056-2.048
					c180.453,4.855,342.844,57.749,514.77,113.749c43.691,14.231,88.869,28.947,133.858,42.614
					c15.761,6.748,31.805,4.075,47.322,1.486c3.193-0.532,6.387-1.064,9.58-1.52c97.721-21.847,190.793-51.329,280.802-79.842
					c127.748-40.466,248.411-78.688,382.766-97.655c307.696-44.292,599.234,39.754,881.167,121.034
					c48.353,13.939,98.35,28.354,147.525,41.85l-0.542,1.976c-49.188-13.502-99.192-27.917-147.551-41.858
					c-281.728-81.219-573.048-165.206-880.312-120.976c-134.187,18.945-254.771,57.142-382.435,97.582
					c-90.05,28.524-183.166,58.021-281.052,79.902c-3.256,0.468-6.433,0.997-9.612,1.527
					C694.175-88.613,685.662-87.195,677.102-87.195z"/>
			</g>
			<g>
				<path style="fill:#999999;" d="M699.116-150.749c-17.497,0-35.097-1.857-52.979-6.328
					c-81.583-19.136-160.776-44.521-237.361-69.069c-135.402-43.401-263.295-84.395-405.115-94.699l0.15-2.043
					c142.064,10.323,270.069,51.353,405.59,94.793c76.547,24.535,155.701,49.906,237.218,69.028
					c59.64,14.913,116.378,0.466,176.453-14.823c5.631-1.433,11.279-2.87,16.947-4.288c17.514-5.042,34.959-10.095,52.326-15.124
					c162.156-46.958,315.317-91.311,482.993-115.97c273.137-41.699,531.763,25.971,781.876,91.418
					c77.827,20.363,158.303,41.421,238.159,58.926l-0.438,2c-79.898-17.514-160.393-38.576-238.241-58.946
					c-249.909-65.392-508.331-133.011-781.053-91.373c-167.545,24.639-320.641,68.975-482.728,115.913
					c-17.369,5.029-34.814,10.081-52.365,15.133c-5.7,1.425-11.344,2.863-16.972,4.295
					C781.189-161.119,740.449-150.749,699.116-150.749z"/>
			</g>
			<g>
				<path style="fill:#999999;" d="M694.521-209.54c-24.114,0-50.031-4.337-78.475-13.089
					c-55.321-16.742-110.658-35.104-164.173-52.863C299.139-326.175,154.874-374.047-2.173-392.515l0.24-2.034
					c157.254,18.493,308.341,68.629,454.451,117.114c53.502,17.754,108.826,36.113,164.126,52.848
					c39.668,12.205,74.353,15.768,106.046,10.891c109.153-14.938,215.896-40.868,319.126-65.944
					c141.129-34.283,287.066-69.735,437.396-76.064c238.039-10.462,460.122,43.956,695.252,101.567l31.405,7.69
					c64.141,16.732,122.146,27.51,182.562,33.921l-0.216,2.037c-60.52-6.423-118.621-17.217-182.847-33.972l-31.392-7.686
					c-234.984-57.577-456.952-111.951-694.675-101.511c-150.132,6.321-295.967,41.749-437.002,76.008
					c-103.279,25.089-210.075,51.033-319.314,65.981C713.763-210.251,704.288-209.54,694.521-209.54z"/>
			</g>
			<g>
				<path style="fill:#999999;" d="M2270.337,2167.131l-1.861-0.856c34.396-74.748,75.588-141.015,119.199-211.173
					c17.058-27.443,34.697-55.82,51.911-84.772c157.62-265.984,121.817-564.997,87.194-854.165
					c-3.651-30.481-7.424-61.997-10.871-92.756c-12.233-107.653-29.114-214.773-45.438-318.367
					c-20.063-127.323-40.811-258.979-52.871-391.641c-8.611-86.111-27.355-172.182-45.482-255.419
					c-16.354-75.092-33.265-152.742-42.722-230.307l2.032-0.248c9.447,77.47,26.347,155.072,42.69,230.119
					c18.14,83.295,36.898,169.424,45.521,255.661c12.055,132.602,32.797,264.226,52.854,391.516
					c16.329,103.615,33.212,210.758,45.45,318.455c3.446,30.752,7.22,62.267,10.869,92.742
					c34.665,289.508,70.51,588.873-87.465,855.456c-17.226,28.97-34.87,57.356-51.935,84.807
					C2345.839,2026.284,2304.68,2092.5,2270.337,2167.131z"/>
			</g>
			<g>
				<path style="fill:#999999;" d="M2224.87,2185.208l-1.912-0.737c23.2-60.311,53.038-116.434,81.894-170.708
					c12.993-24.438,26.428-49.708,39.125-75.1c30.169-65.369,62.608-141.757,65.429-220.766
					c3.638-334.6-9.915-673.812-23.02-1001.855c-6.579-164.647-13.38-334.9-17.94-502.707
					c-3.324-101.382-27.385-201.749-50.656-298.812c-15.012-62.622-30.536-127.376-40.593-192.442l2.024-0.312
					c10.044,64.983,25.558,129.695,40.561,192.277c23.294,97.162,47.379,197.633,50.71,299.229
					c4.56,167.8,11.363,338.046,17.94,502.687c13.107,328.069,26.659,667.307,23.022,1001.983
					c-2.836,79.416-35.365,156.028-65.632,221.606c-12.722,25.444-26.163,50.726-39.162,75.176
					C2277.833,2068.946,2248.025,2125.012,2224.87,2185.208z"/>
			</g>
			<g>
				<path style="fill:#999999;" d="M2181.048,2200.487l-1.944-0.643c12.869-38.994,29.338-77.869,45.266-115.462
					c42.641-100.646,86.735-204.717,64.901-319.837c-79.162-448.589-47.43-862.744,24.57-1346.585
					c31.957-205.444-15.271-401.151-60.946-590.414c-8.935-37.03-18.176-75.32-26.692-113.124l1.997-0.451
					c8.513,37.79,17.752,76.072,26.686,113.094c45.722,189.457,92.999,385.365,60.98,591.204
					c-71.971,483.637-103.692,897.605-24.58,1345.908c21.947,115.717-22.27,220.079-65.031,321.005
					C2210.343,2122.736,2193.891,2161.572,2181.048,2200.487z"/>
			</g>
			<g>
				<path style="fill:#999999;" d="M2137.927,2212.622l-1.955-0.608c44.961-144.314,85.399-298.579,44.085-458.326
					c-8.935-34.251-18.528-68.944-27.804-102.495c-29.269-105.85-59.534-215.302-72.311-323.086
					c-14.315-120.746-4.783-227.367,29.141-325.955c182.332-519.982,203.511-932.129,66.659-1297.056l1.917-0.72
					c75.078,200.197,101.91,413.342,82.035,651.614c-16.412,196.748-65.045,408.329-148.676,646.834
					c-75.362,219.017-17.767,427.305,43.208,647.823c9.279,33.559,18.875,68.26,27.814,102.527
					C2223.49,1913.444,2182.976,2068.026,2137.927,2212.622z"/>
			</g>
			<g>
				<path style="fill:#999999;" d="M2094.042,2221.507l-1.974-0.544c57.108-207.565-7.604-408.577-70.184-602.97
					c-15.891-49.36-32.323-100.403-46.625-151.008c-26.75-98.975-46.914-203.932-13.637-300.99
					c9.759-27.549,19.625-55.159,29.514-82.837c162.117-453.732,329.752-922.912,133.959-1388.837l1.888-0.793
					c196.101,466.658,28.33,936.219-133.918,1390.32c-9.888,27.675-19.754,55.285-29.509,82.82
					c-33.095,96.527-12.986,201.121,13.676,299.771c14.288,50.558,30.716,101.582,46.601,150.927
					c31.402,97.543,63.874,198.408,80.583,298.535C2123.143,2028.112,2119.749,2128.076,2094.042,2221.507z"/>
			</g>
			<g>
				<path style="fill:#999999;" d="M2047.915,2226.749l-2.035-0.242c22.847-191.544-40.662-373.546-102.08-549.556
					c-20.203-57.9-41.095-117.771-58.65-177.184c-46.933-156.446-43.241-294.503,10.978-410.333
					c189.566-398.828,381.049-919.144,177.459-1406.756l1.891-0.789c90.472,216.689,111.378,450.595,63.91,715.083
					c-36.479,203.264-113.189,423.576-241.407,693.337c-53.996,115.355-57.653,252.921-10.867,408.873
					c17.542,59.372,38.425,119.22,58.621,177.095C2007.229,1852.506,2070.817,2034.735,2047.915,2226.749z"/>
			</g>
			<g>
				<path style="fill:#999999;" d="M1998.942,2228.927l-2.048-0.069c3.021-88.369-15.176-170.351-35.292-245.782
					c-20.122-78.942-49.899-158.613-78.696-235.663c-36.24-96.965-73.713-197.229-91.462-295.39
					c-19.894-110.029-12.457-206.285,22.737-294.268c10.978-28.092,22.103-56.316,33.272-84.654
					c180.304-457.435,366.745-930.443,173.296-1402.496l1.896-0.775c86.704,211.576,103.928,443.919,52.655,710.304
					c-45.328,235.498-137.146,468.442-225.94,693.719c-11.17,28.336-22.293,56.558-33.274,84.656
					c-78.111,195.275-3.458,395.019,68.739,588.187c28.815,77.1,58.612,156.825,78.759,235.863
					C1983.738,2058.131,2001.971,2140.293,1998.942,2228.927z"/>
			</g>
			<g>
				<path style="fill:#999999;" d="M1947.025,2229.01c-4.736-56.977-13.12-108.23-26.387-161.298
					c-21.857-81.278-51.78-164.585-80.718-245.148c-87.216-242.817-177.403-493.902-66.679-735.854
					c187.413-401.601,378.721-926.87,193.04-1428.283l1.92-0.712c82.217,222.018,98.319,459.715,49.228,726.676
					c-38.076,207.056-115.077,430.497-242.329,703.179c-110.373,241.186-20.331,491.87,66.748,734.302
					c28.951,80.603,58.889,163.951,80.772,245.326c13.299,53.196,21.701,104.553,26.444,161.642L1947.025,2229.01z"/>
			</g>
			<g>
				<path style="fill:#999999;" d="M1896.488,2227.061l-0.883-5.883c-5.668-37.79-11.022-73.486-21.38-109.74
					c-19.742-66.815-43.155-135.895-65.798-202.701c-101.642-299.887-206.744-609.985-59.747-903.979
					c161.89-332.299,321.278-837.673,161.231-1358.128l1.957-0.603c66.234,215.388,82.846,447.452,49.372,689.746
					c-30.373,219.839-101.27,445.223-210.723,669.89c-146.62,293.24-41.658,602.926,59.849,902.415
					c22.65,66.825,46.07,135.925,65.825,202.786c10.398,36.393,15.761,72.151,21.44,110.009l0.882,5.882L1896.488,2227.061z"/>
			</g>
			<g>
				<path style="fill:#999999;" d="M1844.858,2223.278c-3.779-45.109-16.925-86.35-27.958-117.24
					c-54.6-156.798-106.362-310.397-139.646-465.717c-37.866-176.711-46.692-334.48-26.979-482.323
					c14.079-107.938,54.98-203.865,98.282-305.425c31.311-73.437,63.688-149.375,84.7-229.919
					c88.546-345.613,94.691-677.673,18.266-986.949l1.99-0.491c76.507,309.609,70.359,642.003-18.272,987.953
					c-21.052,80.695-53.459,156.703-84.799,230.208c-43.246,101.426-84.092,197.228-98.135,304.89
					c-45.206,339.043,72.193,676.189,166.524,947.09c11.071,30.999,24.27,72.405,28.067,117.75L1844.858,2223.278z"/>
			</g>
			<g>
				<path style="fill:#999999;" d="M1792.181,2218.381c-5.359-38.745-16.455-77.579-27.184-115.135
					c-4.801-15.141-9.644-30.347-14.499-45.59c-103.502-325.01-210.528-661.086-116.575-989.915
					C1757.209,638.698,1872.3,131.9,1791.125-373.92l2.021-0.325c81.239,506.219-33.906,1013.291-157.256,1442.549
					c-93.781,328.233,13.15,664.008,116.56,988.729c4.855,15.244,9.698,30.451,14.507,45.62
					c10.759,37.653,21.874,76.558,27.254,115.446L1792.181,2218.381z"/>
			</g>
			<g>
				<path style="fill:#999999;" d="M1739.753,2213.42c-13.239-52.297-27.348-105.469-40.994-156.889
					c-81.557-307.353-165.89-625.168-116.749-950.433c12.241-80.439,25.23-161.643,37.793-240.172
					c68.135-425.926,132.492-828.232,109.068-1247.781l2.046-0.115c23.434,419.771-40.938,822.181-109.091,1248.218
					c-12.561,78.527-25.551,159.727-37.791,240.158c-49.077,324.842,35.201,642.45,116.704,949.599
					c13.647,51.427,27.756,104.604,41,156.912L1739.753,2213.42z"/>
			</g>
			<g>
				<path style="fill:#999999;" d="M1691.119,2209.46c-5.967-54.72-14.851-102.865-27.162-147.182
					c-75.612-280.497-118.141-580.794-133.841-945.059c-1.641-50.892,5.693-102.578,12.788-152.561
					c4.723-33.276,9.607-67.683,11.79-101.506c31.119-376.276,60.613-716.94,106.503-1075.966
					c9.027-63.19,10.333-122.001,3.882-174.819l2.032-0.248c6.473,52.997,5.167,111.99-3.884,175.342
					c-45.883,358.968-75.374,699.609-106.492,1075.841c-2.185,33.882-7.074,68.33-11.802,101.643
					c-7.083,49.897-14.406,101.494-12.77,152.196c15.693,364.101,58.2,664.257,133.77,944.595
					c12.337,44.418,21.243,92.67,27.221,147.502L1691.119,2209.46z"/>
			</g>
			<g>
				<path style="fill:#999999;" d="M1646.796,2207.586c-4.705-60.668-10.068-120.361-23.813-183.596
					c-56.469-223.048-78.706-442.633-98.325-636.371c-3.273-31.646-8.38-63.838-13.319-94.971
					c-7.415-46.75-15.083-95.091-16.724-142.669c-25.875-424.367-41.074-876.869,79.224-1332.886
					c17.14-61.215,21.127-125.249,24.981-187.176c0.442-7.107,0.883-14.203,1.345-21.281l2.042,0.133
					c-0.46,7.076-0.901,14.17-1.344,21.276c-3.86,62.032-7.854,126.176-25.049,187.585
					c-120.217,455.71-105.022,908.024-79.154,1332.252c1.638,47.478,9.296,95.758,16.701,142.445
					c4.943,31.16,10.053,63.38,13.333,95.084c19.612,193.669,41.841,413.176,98.28,636.112
					c13.781,63.393,19.151,123.163,23.863,183.906L1646.796,2207.586z"/>
			</g>
			<g>
				<path style="fill:#999999;" d="M1607.953,2207.946l-2.048-0.04c0.658-33.339-1.939-68.625-7.509-102.043
					c-8.989-59.722-18.25-119.456-27.206-177.223c-30.038-193.763-58.41-376.779-79.3-571.052
					c-16.191-140.327-40.224-272.209-65.667-411.836c-12.776-70.11-25.985-142.604-38.092-216.172
					c-28.426-183.478-24.086-364.937,13.657-571.071c15.981-87.283,39.942-170.408,63.115-250.796
					c29.193-101.271,56.765-196.925,69.776-300.171l2.032,0.256c-13.031,103.404-40.625,199.132-69.839,300.482
					c-23.159,80.34-47.106,163.417-63.069,250.598c-37.7,205.902-42.037,387.145-13.649,570.379
					c12.102,73.543,25.311,146.028,38.084,216.128c25.45,139.661,49.488,271.576,65.688,411.977
					c20.886,194.233,49.254,377.227,79.288,570.964c8.956,57.77,18.216,117.508,27.204,177.218
					C1606.006,2139.066,1608.612,2174.482,1607.953,2207.946z"/>
			</g>
			<g>
				<path style="fill:#999999;" d="M1568.858,2210.705l-2.032-0.255c7.446-59.378,0.35-120.658-6.661-167.41
					c-5.993-41.945-11.984-83.518-17.942-124.859c-27.045-187.671-52.591-364.936-74.908-552.39
					c-16.203-151.914-60.029-291.805-106.429-439.91c-15.57-49.699-31.67-101.089-46.458-152.495
					c-104.45-357.326-3.965-706.272,120.18-1030.13c12.973-34.597,20.865-71.211,28.495-106.619
					c2.002-9.288,3.994-18.53,6.063-27.68l1.998,0.451c-2.068,9.146-4.058,18.38-6.058,27.66
					c-7.647,35.482-15.554,72.171-28.583,106.915c-124.02,323.531-224.408,672.086-120.128,1028.834
					c14.783,51.386,30.879,102.764,46.445,152.452c46.432,148.204,90.287,288.19,106.511,440.292
					c22.311,187.417,47.856,364.669,74.899,552.328c5.958,41.342,11.949,82.915,17.94,124.853
					C1569.222,2089.619,1576.335,2151.078,1568.858,2210.705z"/>
			</g>
			<g>
				<path style="fill:#999999;" d="M1530.044,2215.594l-2.038-0.216c8.084-76.366,6.991-146.136-3.341-213.294
					c-15.818-104.645-29.117-206.963-41.979-305.914c-15.929-122.559-32.4-249.292-53.595-379.489
					c-23.979-151.069-81.139-281.938-141.655-420.491c-8.268-18.929-16.579-37.956-24.848-57.142
					c-73.196-170.369-94.434-353.771-64.928-560.688c23.16-162.421,76.764-335.938,168.696-546.069
					c16.95-39.547,28.506-83.831,37.792-119.414l1.981,0.517c-9.302,35.649-20.88,80.015-37.893,119.711
					c-135.909,310.649-270.524,716.994-103.767,1105.133c8.269,19.183,16.578,38.206,24.844,57.133
					c60.57,138.676,117.781,269.661,141.8,420.987c21.2,130.222,37.674,256.973,53.605,379.548
					c12.86,98.94,26.157,201.249,41.971,305.868C1537.047,2069.107,1538.145,2139.05,1530.044,2215.594z"/>
			</g>
			<g>
				<path style="fill:#999999;" d="M1490.629,2222.921l-2.043-0.16c25.105-321.407-39.737-632.652-108.387-962.17l-0.252-1.209
					c-27.446-126.252-80.687-234.107-137.054-348.295c-26.709-54.107-54.325-110.053-78.614-167.622
					c-62.493-149.351-75.595-311.922-40.054-497.009c31.454-163.803,96.266-325.688,158.945-482.245
					c19.14-47.808,38.931-97.243,57.099-145.183l1.915,0.725c-18.173,47.958-37.97,97.403-57.113,145.219
					c-126.927,317.034-258.174,644.862-118.904,977.698c24.263,57.511,51.867,113.43,78.562,167.509
					c53.942,109.274,109.72,222.269,137.222,348.775l0.253,1.219C1450.883,1589.838,1515.755,1901.221,1490.629,2222.921z"/>
			</g>
			<g>
				<path style="fill:#999999;" d="M1449.896,2232.749l-2.035-0.227c35.51-320.525-9.681-678.709-130.688-1035.829
					c-31.263-93.789-75.96-185.674-119.186-274.536c-85.056-174.853-173.009-355.659-162.131-558.716
					c11.434-184.849,83.887-353.98,153.955-517.542c30.463-71.11,61.963-144.644,88.102-218.606l1.931,0.683
					c-26.161,74.024-57.675,147.588-88.15,218.729c-69.998,163.402-142.381,332.367-153.793,516.853
					c-10.848,202.52,76.986,383.085,161.928,557.703c43.254,88.922,87.982,180.869,119.286,274.78
					c58.24,171.881,99.24,344.036,121.858,511.68C1465.419,1888.9,1468.42,2065.544,1449.896,2232.749z"/>
			</g>
			<g>
				<path style="fill:#999999;" d="M1406.697,2245.124l-2.024-0.312c58.224-376.815-2.901-787.801-172.114-1157.249
					c-23.315-49.127-48.837-98.06-73.518-145.381c-56.228-107.807-114.37-219.284-150.452-340.821
					c-81.022-268.648,24.608-518.388,126.761-759.908c28.385-67.11,57.737-136.508,82.062-204.368l1.928,0.69
					c-24.345,67.915-53.708,137.337-82.105,204.476c-102.01,241.183-207.493,490.577-126.685,758.52
					c36.028,121.353,94.123,232.742,150.307,340.463c24.69,47.338,50.22,96.289,73.557,145.463
					C1403.798,1456.519,1464.981,1867.918,1406.697,2245.124z"/>
			</g>
			<g>
				<path style="fill:#999999;" d="M1360.76,2259.927l-1.995-0.465c78.206-335.878,27.564-731.704-142.596-1114.564
					c-28.192-64.074-61.045-128.726-92.817-191.251C1018.95,748.189,910.992,535.736,940.287,295.104
					c18.949-161.071,81.045-309.006,141.098-452.071c26.61-63.396,54.126-128.949,77.633-194.968l1.93,0.689
					c-23.525,66.07-51.053,131.65-77.675,195.073C1023.277-13.24,961.237,134.56,942.32,295.349
					c-29.219,240.015,78.595,452.186,182.859,657.372c31.783,62.548,64.649,127.225,92.863,191.349
					c80.754,181.694,135.013,365.81,161.272,547.226C1408.272,1891.37,1402.029,2082.683,1360.76,2259.927z"/>
			</g>
			<g>
				<path style="fill:#999999;" d="M1313.117,2275.971l-1.973-0.543c111.111-403.136,25.883-867.081-253.318-1378.95
					C984.602,759.182,899.794,576.09,893.857,377.181c-5.595-175.303,60.922-337.477,125.249-494.311
					c29.831-72.732,60.679-147.939,83.657-223.055l1.958,0.6c-23.006,75.206-53.871,150.457-83.721,223.23
					C956.757,40.282,890.323,202.249,895.905,377.117c5.924,198.488,90.608,381.298,163.723,518.388
					c126.925,232.698,214.792,458.945,261.153,672.45C1375.601,1820.415,1373.022,2058.625,1313.117,2275.971z"/>
			</g>
			<g>
				<path style="fill:#999999;" d="M1267.307,2290.771l-1.93-0.681c105.182-298.94,73.923-642.889-98.376-1082.428
					c-35.678-93.222-78.354-183.539-119.624-270.88C990.782,817.008,932.26,693.156,891.171,560.411
					C812.55,302.082,904.093,59.347,992.623-175.398c18.937-50.216,38.52-102.14,55.868-152.915l1.939,0.661
					c-17.358,50.805-36.947,102.746-55.889,152.976c-88.409,234.423-179.828,476.828-101.41,734.484
					c41.043,132.603,99.533,256.388,156.097,376.096c41.286,87.378,83.979,177.731,119.681,271.017
					c77.732,198.296,125.656,373.631,146.504,536.02C1341.073,1942.801,1324.889,2127.118,1267.307,2290.771z"/>
			</g>
			<g>
				<path style="fill:#999999;" d="M1225.047,2302.552l-1.952-0.621c108.555-341.156,64.306-733.921-135.274-1200.737
					c-19.532-45.01-40.508-90.863-60.792-135.204C915.627,722.455,800.432,470.632,841.984,191.311
					c16.875-111.375,54.186-215.153,90.268-315.515c22.384-62.261,45.532-126.643,63.655-192.367l1.974,0.544
					c-18.144,65.798-41.305,130.217-63.703,192.516C898.13-23.243,860.854,80.44,844.009,191.615
					c-41.462,278.717,73.604,530.261,184.883,773.522c20.288,44.35,41.267,90.213,60.81,135.245
					c91.326,213.61,148.8,407.521,175.71,592.819C1297.337,1913.031,1283.756,2118.045,1225.047,2302.552z"/>
			</g>
			<g>
				<path style="fill:#999999;" d="M1184.336,2312.066l-1.96-0.598c147.376-483.923-30.85-950.2-203.208-1401.125
					c-45.286-118.478-92.115-240.991-131.68-360.837c-88.094-261.833-7.593-519.117,70.258-767.93
					c8.951-28.605,18.206-58.185,26.976-87.092l1.96,0.595c-8.773,28.916-18.031,58.5-26.981,87.11
					c-77.754,248.501-158.154,505.462-70.271,766.669c39.553,119.806,86.374,242.298,131.652,360.755
					C1153.563,1360.86,1331.916,1827.471,1184.336,2312.066z"/>
			</g>
			<g>
				<path style="fill:#999999;" d="M1143.42,2319.782l-1.978-0.525c67.233-253.418,63.969-523.278-9.983-824.999
					c-50.183-209.092-119.164-407.799-185.873-599.965c-42.416-122.185-86.277-248.529-125.415-377.579
					c-77.957-256.507-9.422-506.505,56.857-748.274c5.836-21.287,11.667-42.556,17.395-63.809l1.978,0.534
					c-5.731,21.256-11.561,42.527-17.398,63.817c-66.202,241.487-134.658,491.197-56.873,747.138
					c39.126,129.012,82.98,255.335,125.389,377.502c66.727,192.211,135.724,390.968,185.929,600.154
					C1207.483,1795.833,1210.746,2066.025,1143.42,2319.782z"/>
			</g>
			<g>
				<path style="fill:#999999;" d="M1100.589,2326.192l-2.005-0.413c104.671-506.647-49.082-1003.915-197.773-1484.811
					c-33.672-108.906-68.493-221.52-99.759-332.466c-81.393-277.86-15.053-552.6,43.479-794.998l1.989,0.48
					C788.048-43.867,721.777,230.59,803.02,507.937c31.262,110.931,66.078,223.532,99.748,332.426
					c74.363,240.506,151.258,489.198,194.906,736.095C1146.641,1853.431,1147.594,2098.672,1100.589,2326.192z"/>
			</g>
			<g>
				<path style="fill:#999999;" d="M1053.938,2331.551l-2.029-0.277c70.112-513.627-53.288-995.354-183.935-1505.368
					c-36.763-143.517-74.779-291.922-107.898-440.34c-44.699-208.6-9.739-409.92,24.071-604.612
					c3.474-20.005,6.95-40.024,10.35-60.073l2.019,0.342c-3.399,20.052-6.876,40.075-10.351,60.081
					c-33.777,194.5-68.703,395.622-24.087,603.825c33.108,148.379,71.121,296.767,107.88,440.269
					c65.752,256.678,127.857,499.121,166.542,748.609C1080.346,1856.787,1085.887,2097.502,1053.938,2331.551z"/>
			</g>
			<g>
				<path style="fill:#999999;" d="M1001.423,2335.872l-2.047-0.08c26.288-674.889-107.349-1333.526-255.679-1944.747
					c-42.103-174.726-25.597-347.112-9.634-513.823c4.752-49.63,9.665-100.948,12.942-151.469l2.042,0.133
					c-3.277,50.552-8.192,101.886-12.946,151.531c-15.946,166.543-32.435,338.757,9.587,513.147
					C894.052,1001.926,1027.72,1660.733,1001.423,2335.872z"/>
			</g>
			<g>
				<path style="fill:#999999;" d="M940.379,2339.2l-2.04-0.178c10.3-117.876-1.484-236.5-14.438-347.899
					c-34.365-254.702-48.054-508.479-61.293-753.901c-4.67-86.544-9.497-176.033-15.171-264.71
					c-8.644-129.659-39.786-248.63-72.756-374.586c-18.596-71.042-37.826-144.502-52.84-220.577
					c-31.507-161.47-26.03-318.466-20.733-470.293c2.055-58.889,4.179-119.784,4.122-180.13l2.048-0.003
					c0.057,60.384-2.068,121.297-4.123,180.204c-5.294,151.711-10.766,308.589,20.695,469.826
					c15.002,76.011,34.223,149.441,52.811,220.454c32.996,126.052,64.161,245.114,72.817,374.971
					c5.676,88.689,10.505,178.185,15.174,264.733c13.236,245.382,26.925,499.117,61.28,753.756
					C938.902,2102.389,950.697,2221.131,940.379,2339.2z"/>
			</g>
			<g>
				<path style="fill:#999999;" d="M865.872,2341.166c-4.404-134.813-25.398-268.173-45.698-397.144
					c-14.374-91.307-29.235-185.722-38.273-280.607c-16.727-175.634,3.376-340.589,27.314-508.156
					c25.955-201.657-16.205-386.231-60.839-581.642c-15.963-69.891-32.47-142.16-45.654-215.402
					c-27.275-153.907-29.58-306.063-31.811-453.208c-0.897-59.166-1.824-120.345-4.364-180.752l2.046-0.086
					c2.541,60.434,3.469,121.628,4.367,180.806c2.23,147.065,4.535,299.138,31.779,452.88
					c13.175,73.192,29.677,145.437,45.636,215.306c44.676,195.594,86.875,380.34,60.871,582.373
					c-23.922,167.454-44.009,332.276-27.304,507.686c9.032,94.823,23.888,189.206,38.256,280.483
					c20.311,129.031,41.315,262.455,45.724,397.395L865.872,2341.166z"/>
			</g>
			<g>
				<path style="fill:#999999;" d="M778.513,2341.079c-13.195-83.584-32.915-167.657-51.986-248.96
					c-47.117-200.872-95.838-408.582-51.106-628.347c12.162-60.137,27.303-118.971,41.946-175.866
					c45.187-175.585,87.869-341.43,42.714-528.214C679.823,425.715,649.849,101.763,629.534-281.895l2.045-0.109
					c20.308,383.547,50.272,707.393,130.493,1041.217c45.275,187.278,2.532,353.366-42.722,529.203
					c-14.636,56.87-29.77,115.678-41.922,175.763c-44.642,219.326,4.027,426.816,51.094,627.473
					c19.079,81.34,38.807,165.45,52.014,249.107L778.513,2341.079z"/>
			</g>
			<g>
				<path style="fill:#999999;" d="M674.426,2337.602c-13.723-46.698-29.286-94.862-44.335-141.44
					c-75.383-233.302-153.332-474.545-69.323-710.684c17.366-49.988,36.745-100.124,55.487-148.607
					c81.476-210.781,158.435-409.873,105.592-645.464C663.3,436.306,639.469,183.924,616.423-60.148
					c-7.099-75.188-14.44-152.936-22.708-230.023l2.037-0.219c8.269,77.1,15.611,154.855,22.711,230.05
					c23.039,244.006,46.862,496.32,105.382,751.294c23.782,106.028,22.778,215.466-3.069,334.57
					c-23.071,106.317-63.506,210.924-102.61,312.086c-18.736,48.467-38.109,98.585-55.465,148.548
					c-83.781,235.491-5.939,476.398,69.34,709.375c15.054,46.59,30.621,94.768,44.352,141.491L674.426,2337.602z"/>
			</g>
			<g>
				<path style="fill:#999999;" d="M552.891,2327.107c-6.492-16.175-13.09-32.457-19.727-48.835
					c-50.154-123.772-102.016-251.755-128.551-381.991c-30.115-147.804-21.906-275.939,25.099-391.729
					c29.26-72.677,71.524-141.808,112.399-208.662c77.093-126.1,156.813-256.492,149.676-413.509
					c-10.3-248.93-44.9-500.776-78.357-744.33c-19.735-143.647-40.14-292.186-55.29-438.262l2.038-0.21
					c15.145,146.041,35.55,294.563,55.281,438.193c33.466,243.602,68.071,495.497,78.375,744.519
					c7.165,157.64-72.72,288.304-149.975,414.666c-40.83,66.784-83.049,135.84-112.248,208.363
					c-104.818,258.213,5.831,531.268,103.453,772.183c6.639,16.381,13.238,32.665,19.731,48.842L552.891,2327.107z"/>
			</g>
			<g>
				<path style="fill:#999999;" d="M419.006,2305.617c-7.35-17.603-14.792-35.205-22.239-52.824
					c-61.22-144.803-124.523-294.534-139.163-455.577c-9.572-88.071,6.212-174.259,48.26-263.477
					c37.568-79.716,92.576-155.216,145.772-228.231c30.382-41.701,61.799-84.821,90.122-128.813
					c77.573-117.609,112.353-252.289,106.337-411.745c-19.227-362.55-70.707-716.24-126.286-1076.827l2.024-0.312
					c55.588,360.64,107.075,714.387,126.308,1077.045c6.035,159.914-28.857,294.988-106.666,412.957
					c-28.349,44.031-59.782,87.176-90.182,128.9c-110.506,151.675-214.884,294.939-193.649,490.299
					c14.612,160.743,77.852,310.325,139.009,454.982c7.451,17.622,14.894,35.227,22.244,52.832L419.006,2305.617z"/>
			</g>
			<g>
				<path style="fill:#999999;" d="M283.407,2271.948c-57.381-129.164-110.639-255.93-131.808-386.687
					c-24.732-152.77,0.169-283.609,76.13-399.999c39.65-61.199,85.103-117.137,129.059-171.234
					c97.057-119.449,188.731-232.271,214.858-390.901c61.215-353.681,2.797-701.955-53.695-1038.759
					c-11.524-68.714-23.443-139.766-34.16-209.763l2.024-0.309c10.716,69.98,22.632,141.026,34.156,209.733
					c56.523,336.974,114.967,685.422,53.695,1039.44c-26.215,159.157-118.055,272.184-215.289,391.85
					c-43.922,54.056-89.339,109.951-128.931,171.061c-174.205,266.925-41.247,566.209,55.833,784.737L283.407,2271.948z"/>
			</g>
			<g>
				<path style="fill:#999999;" d="M158.35,2229.473l-0.702-1.883c-47.545-127.272-96.709-258.877-110.307-397.598
					c-8.277-96.202,12.092-191.106,62.269-290.15c44.77-88.372,108.851-172.245,170.823-253.354
					c23.293-30.488,47.379-62.013,70.208-93.455C654.12,782.726,558.402,274.917,473.949-173.115
					c-10.424-55.301-21.203-112.486-30.851-167.51l2.016-0.354c9.647,55.012,20.424,112.19,30.849,167.485
					c43.337,229.914,88.151,467.656,84.478,701.041c-4.168,264.889-72.255,482.968-208.148,666.696
					c-22.838,31.454-46.931,62.991-70.233,93.488c-129.102,168.975-251.045,328.579-232.681,542.072
					c13.574,138.444,62.69,269.921,110.188,397.069l0.703,1.883L158.35,2229.473z"/>
			</g>
			<g>
				<path style="fill:#999999;" d="M53.155,2185.809C1.695,2046.04-24.648,1923.957-27.381,1812.58
					c-3.404-138.74,30.978-263.568,102.194-371.015c27.766-41.154,56.086-81.542,83.474-120.6
					c124.636-177.748,242.359-345.638,295.955-564.489c94.763-387.413,24.507-762.74-55.574-1113.965l1.997-0.456
					c39.419,172.887,78.054,359.337,93.703,551.333c16.771,205.754,4.296,390.101-38.136,563.574
					c-53.688,219.224-171.518,387.268-296.268,565.177c-27.382,39.051-55.696,79.432-83.447,120.564
					c-129.286,195.063-136.1,430.968-21.438,742.399L53.155,2185.809z"/>
			</g>
			<g>
				<path style="fill:#999999;" d="M-34.021,2147.028c-38.095-137.049-56.346-257.419-55.796-367.989
					c0.669-134.632,30.319-256.419,88.124-361.978c26.71-47.08,53.985-93.997,80.363-139.37
					c135.778-233.557,264.026-454.161,334.616-720.576c75.616-274.11,17.702-546.505-38.307-809.932
					c-8.583-40.369-17.458-82.112-25.658-123.011l2.008-0.403c8.198,40.888,17.071,82.624,25.653,122.986
					C433.04,10.423,491.008,283.069,415.261,557.65c-70.656,266.672-198.971,487.391-334.822,721.07
					c-26.374,45.369-53.646,92.281-80.343,139.339c-104.72,191.226-115.235,429.499-32.145,728.421L-34.021,2147.028z"/>
			</g>
			<g>
				<path style="fill:#999999;" d="M-104.555,2117.96c-136.189-464.72,78.436-884.669,285.994-1290.791
					c47.18-92.314,95.965-187.769,139.061-281.144C446.77,276.156,378.828-21.67,313.122-309.69
					c-6.412-28.103-13.042-57.164-19.275-85.354l2-0.443c6.232,28.183,12.861,57.241,19.271,85.341
					c32.272,141.47,65.645,287.755,75.23,432.874c10.862,164.422-11.379,303.166-67.99,424.16
					c-43.112,93.407-91.906,188.882-139.095,281.213c-207.378,405.765-421.815,825.345-285.853,1289.283L-104.555,2117.96z"/>
			</g>
			<g>
				<path style="fill:#999999;" d="M-162.318,2099.261c-46.839-268.725-44.142-530.246,8.018-777.296
					c55.601-263.353,166.692-505.188,330.189-718.788C397.868,313.298,314.373-50.737,240.707-371.92
					c-3.279-14.289-6.537-28.502-9.752-42.626l1.997-0.453c3.214,14.122,6.473,28.333,9.751,42.622
					c73.767,321.622,157.376,686.157-65.188,976.8c-318.818,416.519-435.632,933.305-337.814,1494.487L-162.318,2099.261z"/>
			</g>
			<g>
				<path style="fill:#999999;" d="M-213.121,2090.105c-4.204-85.111-12.057-173.118-19.652-258.228
					C-263.194,1491-294.65,1138.518-113.64,824.477c36.138-64.613,80.226-123.29,122.86-180.036
					c65.741-87.499,127.837-170.144,163.786-273.089c88.51-257.485,44.105-527.577-13.533-804.722l2.005-0.416
					c25.279,121.557,52.925,262.946,60.981,402.673c8.802,152.643-6.742,284.509-47.519,403.136
					c-36.056,103.248-98.243,186.02-164.083,273.649c-42.594,56.692-86.639,115.313-122.717,179.817
					c-180.693,313.491-149.265,665.647-118.873,1006.206c7.596,85.13,15.452,173.156,19.658,258.309L-213.121,2090.105z"/>
			</g>
			<g>
				<path style="fill:#999999;" d="M-261.541,2088.953c-1.441-38.839-2.063-78.103-2.664-116.072
					c-1.542-97.453-3.139-198.225-18.866-298.481l-4.019-27.257c-39.298-266.156-79.933-541.371,23.198-795.232
					c36.151-88.874,93.251-166.706,148.471-241.976c45.151-61.547,91.839-125.188,127.366-195.017
					c149.526-293.07,109.672-634.084,66.686-865.098l2.013-0.373c43.041,231.305,82.935,572.776-66.874,866.4
					c-35.602,69.977-82.342,133.688-127.541,195.298c-55.145,75.171-112.169,152.899-148.225,241.537
					c-102.92,253.345-62.327,528.279-23.068,794.161l4.019,27.25c15.747,100.388,17.342,201.233,18.887,298.757
					c0.602,37.958,1.223,77.21,2.664,116.029L-261.541,2088.953z"/>
			</g>
		</g>
	</g>
</g>
</svg>
